<?xml version="1.0" encoding="utf-8"?>
<!-- Generator: Adobe Illustrator 19.1.0, SVG Export Plug-In . SVG Version: 6.00 Build 0)  -->
<svg version="1.1" id="Layer_1" xmlns="http://www.w3.org/2000/svg" xmlns:xlink="http://www.w3.org/1999/xlink" x="0px" y="0px"
	 viewBox="0 0 426.5 153.6" style="enable-background:new 0 0 426.5 153.6;" xml:space="preserve">
<style type="text/css">
	.st0{fill:#AE9A64;}
</style>
<g>
	<g>
		<path class="st0" d="M170.9,31c0,0-3.8,2-5-3.5c0,0-1.6-7.4-9.8-1.9h0h0l0.3,0.2c0,0,3.8-2,5,3.5c0,0,1.6,7.4,9.8,1.9L170.9,31z"
			/>
		<path class="st0" d="M357.6,78.1l-1,1c-0.5,0.5-1.2,0.8-1.9,0.8c-0.7,0-1.4-0.3-1.9-0.8c-0.5-0.5-0.8-1.2-0.8-1.9l0-32.8l1.7-1.7
			l0-0.4c-3.1-1.4-7.6-6.2-7.6-6.2l-19,10.9v-2.6l1.7-1.7l0-0.4c-3.1-1.4-7.6-6.2-7.6-6.2l-6.6,6.6l0.4,0.4l0.1-0.1
			c0.5-0.5,1.2-0.8,1.9-0.8c0.8,0,1.4,0.3,1.9,0.8c0.5,0.5,0.8,1.2,0.8,1.9l0,34.4l-1.7,1.7l0,0.4c3.1,1.4,5.9,4.6,5.9,4.6l6.2-6.2
			l-0.4-0.4l-0.5,0.5c-0.2,0.2-0.6,0.4-0.9,0.4c-0.7,0-1.3-0.6-1.3-1.3V48.6l11.1-6.4c0.3-0.2,0.7-0.3,1.1-0.3
			c0.7,0,1.4,0.3,1.9,0.8l2.6,2.6c0.5,0.5,0.8,1.2,0.8,1.9l0,30.4l-1.7,1.7l0,0.4c3.1,1.4,7.6,6.2,7.6,6.2l7.4-7.4L357.6,78.1z"/>
		<path class="st0" d="M387.5,77.3l-2.2,2.2l0,0c-0.5,0.5-1.1,0.8-1.8,0.8c-0.2,0-0.4,0-0.5-0.1c-2.2-0.7-5.3-1.7-10.1-4.8
			c-0.6-0.4-1.2-0.9-1.8-1.5c-1-1-1.8-2.1-2.4-3.3l10-7.2c7.3-5.2,8.5-12.4,8.5-16.1v-1.4c0-6.7-5.9-9.7-5.9-9.7l-11.8,9.1
			c-7.3,5.2-8.5,11-8.5,14.7v10.9c0,6.7,5.9,9.7,5.9,9.7s6.5,3.8,12.7,5.5l8.3-8.3L387.5,77.3z M367.2,64.6l0-9.5l0-0.2l0,0
			c0-3.3,0.5-6.5,4-9.4l4.9-3.8c0.4,0.3,0.7,0.6,1.1,0.9c2.4,2.4,3.8,5.7,3.8,9.3c0,0,0,1.6,0,1.6c0,3.5-0.6,6.8-4.6,9.8l-8.3,5.9
			C367.5,67.9,367.2,66.3,367.2,64.6z M367.2,64.5v0.2C367.2,64.6,367.2,64.5,367.2,64.5L367.2,64.5z"/>
		<path class="st0" d="M426,37.6c0,0-3.3,4.2-7.5-1.4l-13.6,13.5v-5.2l1.7-1.7l0-0.4c-3.1-1.4-7.6-6.2-7.6-6.2l-6.6,6.6l0.4,0.4
			L393,43c0.5-0.5,1.2-0.8,1.9-0.8c0.7,0,1.4,0.3,1.9,0.8c0.5,0.5,0.8,1.2,0.8,1.9v34.4l-1.7,1.7l0,0.4c3.1,1.4,5.9,4.6,5.9,4.6
			l6.2-6.2l-0.4-0.4l-0.5,0.5c-0.2,0.2-0.6,0.4-0.9,0.4c-0.7,0-1.3-0.6-1.3-1.3v-1.6l0-25.8l10.4-10.3c1.9,1.5,6.7,4,11.2-3.7H426z"
			/>
		<path class="st0" d="M163.6,90c-13,0-13.9-11.6-16.4-19.4c0,0-2.4-9.8-9.6-9.8c16.1-17.2,1.7-24.6,1.7-24.6l-15.2,9.2l0-10.3
			c7.2-6.6,16-11.5,16.1-11.6c0,0,2.5-1.5,3.3-2.3c1.9-1.9,2.9-4.4,2.9-7.1c0-2.7-1-5.2-2.9-7.1c-2.9-2.9-6.8-2.9-6.9-2.9
			c0,0-0.7,0-0.9,0C115.8,4.9,117,25.8,117,25.8v51.8l-1.7,1.7l0,0.4c3.1,1.4,7.6,6.2,7.6,6.2l6.6-6.6L129,79l-0.1,0.1
			c-0.5,0.5-1.2,0.8-1.9,0.8c-0.7,0-1.4-0.3-1.9-0.8c-0.5-0.5-0.8-1.2-0.8-1.9l0-30.4l9.2-5.6c0.6,0.4,1.2,0.9,1.8,1.5
			c2.4,2.4,3.8,5.7,3.8,9.3c0,3.6-1.5,6.9-3.8,9.3l-3.9,3.9v1.9c2-2,3.4-1.8,3.4-1.8c5.1,0,7,9.2,7,9.2c3.8,15,14.5,17.5,14.5,17.5
			c12.2,2.9,16.2-5.1,16.2-5.1S170.1,90,163.6,90z M130.5,7.9c1.6-1.6,3.8-2.5,6.1-2.5c2.3,0,4.5,0.9,6.1,2.5
			c1.6,1.6,2.5,3.8,2.5,6.1c0,2.3-0.9,4.5-2.5,6.1c-0.8,0.8-3,2.1-3,2.1c-0.6,0.3-8.6,5.1-15.4,11.6v-8.2
			C124.3,16.4,127.4,11,130.5,7.9z"/>
		<path class="st0" d="M205.2,51.5l0-0.2C205.2,51.4,205.2,51.5,205.2,51.5L205.2,51.5z M205.5,35.5l-17.9,10l0-10.2
			c4.4-3.6,18-11.1,18-11.1c0.8-0.5,1.6-1,2.2-1.7c2-2,3.2-4.7,3.2-7.6c0-2.9-1.1-5.6-3.2-7.6c-3.1-3.1-7.5-3.2-7.5-3.2
			c-21.3,0-20,21.8-20,21.8v51.8l-1.7,1.7l0,0.4c3.1,1.4,7.6,6.2,7.6,6.2l16.7-9.3c6.3-3.5,8.5-12.3,8.5-16.1V45.2
			C211.4,38.5,205.5,35.5,205.5,35.5z M187.6,25.8c0-9.3,3-14.6,6-17.7c1.8-1.7,4.1-2.7,6.6-2.7c2.5,0,4.9,1,6.7,2.8
			c1.8,1.8,2.8,4.1,2.8,6.7c0,2.5-1,4.9-2.8,6.7c-0.5,0.5-1.1,1-1.7,1.4c0,0-13.6,7.8-17.6,11.3V25.8z M205.2,66.9L205.2,66.9
			c0,3.6-0.8,7.4-4.7,9.6l-7.8,4.3l0,0c-0.4,0.2-0.8,0.3-1.2,0.3c-0.7,0-1.4-0.3-1.9-0.8l-1.2-1.2c-0.5-0.5-0.8-1.2-0.8-1.9l0-30.3
			l11.7-6.5c0,0,1.4,1.1,2,1.7c2.4,2.4,3.8,5.7,3.8,9.3L205.2,66.9z"/>
		<path class="st0" d="M244.2,69.9l0,0.2C244.2,70,244.2,70,244.2,69.9L244.2,69.9z M273.8,79l-0.1,0.1c-0.5,0.5-1.2,0.8-1.9,0.8
			c-0.7,0-1.4-0.3-1.9-0.8c-0.5-0.5-0.8-1.2-0.8-1.9l0-32.8l1.7-1.7l0-0.4c-3.1-1.4-7.6-6.2-7.6-6.2l-16.7,11.9
			c-7.3,5.2-8.5,12.4-8.5,16.1v12.1c0,6.7,5.9,9.7,5.9,9.7l17.9-13.7l0,8.5c2.8,1.9,5.9,5.2,5.9,5.2l6.6-6.6L273.8,79z M261.7,70.6
			l-10.5,8.1c-0.1,0.1-0.4,0.4-0.4,0.4c-0.4,0.3-0.9,0.4-1.5,0.4c-0.7,0-1.4-0.3-1.8-0.7c-2-2.3-3.3-5.3-3.3-8.6V58l0-0.1v0
			c0-3.6,0.6-6.9,4.7-9.9l9.7-6.9c0.5,0.1,0.9,0.3,1.2,0.7L261,43c0.5,0.5,0.8,1.2,0.8,1.9V70.6z"/>
		<path class="st0" d="M300.6,29.2c-10.8-15.8-1.8-25.1-1.8-25.1c-17.5,12-4.2,29.2-4.2,29.2s1.2,1.7,2.9,4.5L287,45.4
			c-7.3,5.2-8.5,11-8.5,14.7V71c0,6.7,5.9,9.7,5.9,9.7l8.9,5.3l11.3-8.7C323.4,60.9,300.6,29.2,300.6,29.2z M303.6,76.4l-3.5,2.7
			c-0.5,0.4-1.2,0.7-1.9,0.7c-0.4,0-0.8-0.1-1.2-0.3c-2.3-1.4-6.2-3.7-6.7-4c-0.6-0.4-1.2-0.9-1.8-1.5c-2.4-2.4-3.8-5.7-3.8-9.3
			v-9.6l0,0c0-3.6,0.6-6.9,4.7-9.9l8.7-6.3C303.8,48.8,313.5,68.6,303.6,76.4z"/>
		<g>
			<path class="st0" d="M89.7,48.7C78,45.2,58.3,39.8,58.3,24.2c0-2.9,1.2-6.1,3.5-8.4c-3.2,2.8-9,8.9-6.1,20.2c0,0,2.2,8.4,14,14.3
				c3.6,1.8,15.1,5.5,18.3,6.8c6.9,2.6,10.9,6.8,7,13.9c4.2-3.3,7.9-6.6,7.9-11.5C102.9,52.5,90.2,48.9,89.7,48.7z"/>
			<path class="st0" d="M95.4,38.2c0,0-13.1-3.7-19.9-7c-7-3.9-8.6-5.1-8.6-10.2c0-4.5,4.2-9.3,8.5-11.1c0.3-0.1,0.8-0.3,1.2-0.4
				c1.7,2.2,4.7,3.7,4.9,3.8c5.9,3.1,16,8,14.6,16.9c-0.3,1.7-1.2,3.4-2.6,4.5c2-1.3,5.6-4.3,5.1-11c0,0-0.4-5-6.2-9.4
				c-1.8-1.4-7.6-4.5-9.2-5.6c-3.5-2.1-5.2-4.9-2.5-8.6c-2.6,1.5-4.8,3.1-5.2,5.8c-0.2,1,0.1,2,0.7,2.9c-0.2,0.1-0.4,0.1-0.7,0.2
				c-7.5,2.2-13.2,8.4-13.2,15.3c0,12.6,17.8,17.7,28.5,20.7c0,0,16.1,4.3,16.1,14.6c0,8.4-7.3,12.9-13.3,17.5
				c-8.2-7.8-20.8-9.6-20.8-9.6c-1.7-0.2-2.8-0.3-4.3-0.3c-9.3,0-17.8,3.7-24.4,10.9c-2.8,3-5,6.5-6,9.7c0,0-4.3,11.6,10,11.7
				c0,0-12-0.5-8-11.7c4.7-11.1,14.4-14.6,22.2-14.6c10.1,0,17.8,6.9,24.6,12.7l14.9-11.5c6.3-5,10.2-12,10.2-18.9
				C112,42.6,95.4,38.2,95.4,38.2z"/>
		</g>
		<g>
			<path class="st0" d="M157.8,42.3c0.2-0.2,0.6-0.4,0.9-0.4c0.7,0,1.3,0.6,1.3,1.3v1.6l0,32.9l-1.7,1.7l0,0.4
				c3.1,1.4,7.6,6.2,7.6,6.2l6.6-6.6l-0.4-0.4l-0.1,0.1c-0.5,0.5-1.2,0.8-1.9,0.8c-0.7,0-1.4-0.3-1.9-0.8c-0.5-0.5-0.8-1.2-0.8-1.9
				l0-34.4l1.7-1.7l0-0.4c-3.1-1.4-5.9-4.6-5.9-4.6l-6.2,6.2l0.4,0.4L157.8,42.3z"/>
		</g>
		<path class="st0" d="M245.9,7c-2.9-2.9-6.8-2.9-6.9-2.9c0,0-0.7,0-0.9,0c-20.1,0.8-18.9,21.7-18.9,21.7v51.8l-1.7,1.7l0,0.4
			c3.1,1.4,7.6,6.2,7.6,6.2l9.4-9.4l-0.4-0.4l-3,3c-0.5,0.5-1.2,0.8-1.9,0.8c-0.7,0-1.4-0.3-1.9-0.8c-0.5-0.5-0.8-1.2-0.8-1.9V35.1
			c7.2-6.6,16-11.5,16.1-11.6c0,0,2.5-1.5,3.3-2.3c1.9-1.9,2.9-4.4,2.9-7.1C248.9,11.4,247.8,8.9,245.9,7z M245,20.2
			c-0.8,0.8-3,2.1-3,2.1c-0.6,0.3-8.6,5.1-15.4,11.6v-8.2c0-9.5,3.1-14.9,6.2-17.9c1.6-1.6,3.8-2.5,6.1-2.5c2.3,0,4.5,0.9,6.1,2.5
			c1.6,1.6,2.5,3.8,2.5,6.1C247.5,16.4,246.6,18.6,245,20.2z"/>
	</g>
	<g>
		<g>
			<path class="st0" d="M166.6,124.9c0-0.2-0.1-0.4,0-0.6c0.2,0.1,0,0.3,0.3,0.3v-0.5c-0.1-0.3,0.2-0.7-0.1-0.9l0.1-0.1
				c-0.4-0.6,0.2-0.9,0.1-1.5h-0.3v-0.4h0.1v-0.1c-0.1-0.2-0.5-0.2-0.7-0.2c-0.3,0.2,0.1,0.7-0.3,0.8c-0.2,0-0.5,0.1-0.6-0.2
				c-0.2-0.9-0.8-1.4-1.3-2c0-0.1,0-0.3,0.1-0.3c0-0.5-0.2-0.9,0-1.5c-0.1-0.3-0.1-0.6,0-0.9c-0.1-0.3,0-0.8-0.2-0.9
				c0.2-0.2,0-0.5,0.2-0.7c-0.2-0.1,0.1-0.6-0.1-0.8c-0.3-0.6,0.2-1.2-0.1-1.8c0.2-0.5-0.3-1.1,0.2-1.6c-0.4-0.2-0.1-0.6-0.2-0.9
				c0-0.5,0-0.9,0-1.3c0.3-0.2,0.5-0.2,0.8-0.2c0-0.1,0.2-0.1,0.1-0.2l0.5-0.6c-0.1-0.1,0-0.3,0.1-0.3c0.1-1.2-0.5-2.5-0.9-3.5
				c-0.4-0.2-0.2-1-0.6-1.2c0.2-0.3-0.2-0.8,0.2-1.1c-0.6-0.6,0.3-1,0.1-1.7c-0.2-0.2-0.5-0.1-0.6-0.4c-0.3,0.1-0.7,0.1-0.9,0.3
				c-0.3,0.7,0.8,0.7,0.5,1.5c0.1,0.5-0.5,0.4-0.7,0.6c-0.1,0.3-0.2,0.6-0.2,0.9c-0.8,0.9-0.2,2.2-0.3,3.2l0.2,0.3v-0.1
				c0.4-0.3,0.6,0.1,0.9,0.3c0.4,1.2-1.2,1.3-1.8,1.9c-0.4,0.5-0.3,1.4-0.3,2c0.4,0.2,0.1,0.8,0.3,1.1c0.4,0.5,0.4,1.3,1,1.6
				c0.3-0.1,0-0.2,0.1-0.3c0-0.3-0.4-0.3-0.3-0.6c-0.2-0.4-0.2-0.8-0.4-1.2c-0.1-0.2,0.3-0.5-0.1-0.6c-0.1-0.4,0.2-0.7,0.4-0.9
				c0.3-0.2,0.8-0.3,1.2-0.3l0,3.5c-0.1,1.9,0.2,4,0,5.9c-0.5-0.3-0.9-0.7-1.6-0.8c-0.6-0.2-1-0.6-1.6-0.8c-0.2-0.2-0.4,0.1-0.5-0.1
				c-0.5,0.2-0.9-0.5-1.5-0.2c-0.4-0.2-0.5,0.1-0.9,0.2c-0.1-0.1-0.1-0.1-0.1-0.2c-0.2-0.1-0.4,0-0.7,0.1c-0.5,0.4,0.1,0.7,0.1,1.2
				c0.6,0.1,0.4-0.4,0.7-0.7c0.4-0.3,0.8,0,1.2-0.1c0.7,0,1.2,0.5,1.8,0.4c0.5,0.5,1,1.1,1.5,1.7c0.1,0.9,0.7,1.8,0.2,2.8
				c-0.6,0.4-1.1,0.1-1.7,0.2c-0.2-0.1-0.2,0.2-0.3,0l-2,0.2c-0.3-0.1-0.7,0.2-0.9-0.1c0.2-0.7,0.1-1.1,0.2-1.8
				c0.1-0.2,0.4-0.4,0.3-0.6c0-0.1,0-0.1,0.1-0.1c0.3-0.1,0.1-0.6,0.1-0.9c-0.1-0.2-0.1-0.5-0.3-0.5c0-0.3-0.5-0.3-0.8-0.3
				c-0.4,0.5-0.9,1.1-0.6,1.9c0.7,0.6,0.2,1.7,0.3,2.5c-0.2,0.2-0.5,0.1-0.8,0.1c-0.6-0.3-1.3,0-2-0.1c-0.1-0.6-0.2-1.6,0.3-2.1
				c-0.1-0.1,0-0.2,0.1-0.3c-0.2-0.5,0.2-1.1,0.2-1.7c0.3-0.6-0.2-1.1,0-1.7c0.3,0,0.2-0.5,0.5-0.6c0-0.1-0.2,0-0.1-0.1
				c0,0,0.1-0.1,0.1-0.1l-0.1-0.3l-0.1,0.2c-0.1-0.1,0-0.2,0-0.2c-0.3,0.1-0.2-0.5-0.5-0.3c-0.1,0.2-0.3,0.6-0.4,0.7
				c-0.1-0.1-0.2-0.1-0.2-0.2c-0.4-0.1-0.2,0.5-0.3,0.8c0,0.3,0.2-0.2,0.3,0.2c-0.5,0.8,0.1,1.9-0.4,2.6c-0.1-0.2,0-0.4,0.1-0.5
				c-0.1-0.5-0.7-0.6-1-0.9c-0.1,0.1-0.2,0.2-0.3,0.3c-0.3,0-0.5-0.2-0.7,0c0.5,0.5-0.6,0.9-0.4,1.6c-0.7-1-1.1-2.1-1.6-3.2
				c-0.1-0.8-0.7-1.4-1-2.2l-0.1-0.5c-0.1-0.2-0.2-0.1-0.3-0.1c0-0.1,0.1-0.1,0.1-0.2c-0.1-1.1-1.2-1.7-1.3-2.7
				c-0.7-0.7-0.6-1.9-1.3-2.6c0.1-0.5-0.5-0.6-0.4-1.1c0.1-0.2-0.2-0.3-0.3-0.3c-0.1-0.5-0.2-1.1-0.7-1.3l0.1-0.2
				c-0.2-0.1-0.1-0.5-0.4-0.5c0-0.4-0.4-0.7-0.4-1.2c-0.2-0.4-0.4-0.9-0.7-1.3c-0.2-0.4-0.4-0.8-0.5-1.1c-0.1-0.1,0-0.3-0.2-0.4
				c0-0.6-0.5-0.8-0.5-1.3c-0.3-0.3-0.5-0.7-0.7-1.1c0.1-0.2-0.2-0.2-0.1-0.4c-0.2-0.2-0.3-0.4-0.3-0.7c0.1-0.4-0.3-0.3-0.2-0.8
				c-0.3-0.3-0.3-0.6-0.6-1c-0.2-0.9-0.6-1.9-0.6-2.8c-0.2-0.2,0-0.6-0.3-0.8c0.2-0.6-0.5-1.1-0.2-1.7H138c0.1-0.4-0.3-0.5,0-0.7
				c-0.1-0.6-0.3-1.1-0.4-1.8c-0.2,0.1-0.3-0.3-0.2-0.4h0c0.1-0.7-0.4-1.3-0.3-2c-0.3-0.2-0.1-0.7-0.2-1c-0.1-0.1-0.2-0.3-0.1-0.4
				c-0.4-0.5,0.3-0.6,0.1-1.1c-0.1-0.5-0.5,0-0.6-0.4c0-0.3-0.2-0.6,0-0.9l-0.1-0.2c0-0.1,0.1-0.1,0.2-0.1l-0.2-0.1
				c0.1,0,0.1,0,0.2-0.1c-0.2-0.1-0.1-0.3-0.2-0.5c0.1,0,0.1-0.1,0.1-0.2h-0.1c-0.1,0,0-0.1,0-0.2c0-0.1,0-0.2,0.1-0.2
				c0-0.1-0.1-0.2-0.2-0.2l0.2-0.3c-0.1-0.1,0-0.3-0.1-0.5c0,0.1,0.1,0.2-0.1,0.2c-0.3-0.4,0.2-0.8,0-1.1c0.4-0.3,0.1-0.8-0.1-1.1
				c0.2-0.1,0.2-0.2,0.1-0.3c0.1-0.1,0.2-0.3,0.2-0.5c-0.2-0.3-0.1-0.6,0-0.8c0-0.2,0-0.6-0.1-0.7c0,0,0.1-0.1,0.1-0.1
				c0.2-0.3-0.1-0.4-0.1-0.7c0.1-0.3,0-0.6,0.2-0.9c-0.1-0.1-0.1-0.3-0.2-0.2c0-0.1,0-0.2,0.1-0.2l0,0c0-0.7,0.1-1.5-0.1-2.2
				c0-0.2-0.1-0.5,0.1-0.6h-0.1c-0.1,0-0.1-0.1-0.1-0.1c0-0.1,0.1-0.3,0.2-0.2v-0.4l-0.1,0.3c-0.1-0.1,0-0.4-0.2-0.5l0.1-0.1
				c0.1,0.1,0.2,0.1,0.3,0.2v-0.1h0c-0.4-0.3-0.6-0.1-0.9,0.1c-0.3,0.5,0,1,0,1.6c0.1,0.1,0.1,0.3,0,0.3l-0.1-0.2
				c-0.3,0.1-0.4,0.5-0.7,0.7c0.4,0.1,0,0.5-0.2,0.6c0.1,0.6-0.5,0.9-0.4,1.5c-0.6,0.8-0.2,1.9,0,2.8l0.2,0.1
				c0.2,0.2,0.2,0.5,0.1,0.8c-0.2,0.3-0.5,0.4-0.7,0.5c-0.8,0.9-1.2,2.1-1.2,3.2c0.4,0.6-0.3,1.2,0,1.8c0.2,0.6-0.7,0.4-0.5,0.9
				c0.6,0.3,0.1-0.3,0.4-0.4c0.1,0.3,0.2,0.2,0.4,0.3c0-0.1,0.1-0.2,0-0.2c0.3-0.9,0.1-2.1,1-2.7l0.1,0.1c-0.3,1.3-0.4,2.5-0.9,3.7
				c-0.1,0.4-0.2,0.8-0.2,1.2c-0.3,0.6-0.6,1.6-0.4,2.2h-0.2c-0.2,1-0.4,1.8-0.5,2.8c0,0.4-0.4,0.5-0.2,0.9
				c-0.4,1.5-0.1,3.4-1.4,4.4c0,0.3-0.5,0.4-0.5,0.8c0.4-0.3,0.7-0.9,1.2-1.3c-0.1,0.8-0.3,1.6-0.4,2.4c0,0.2-0.1,0.4-0.3,0.3
				c-0.1-0.5-0.7-0.8-0.6-1.4l-0.3,0c-0.4-0.5-0.5-1.1-0.9-1.5c0-1.3,0.1-2.6-0.2-4c0.2-0.3,0.2-0.7,0.6-0.8
				c-0.2-0.3,0.3-0.1,0.2-0.4l-0.1,0.1c0-0.3-0.5-0.3-0.5-0.6c-0.3-0.3-0.9-0.4-1.3-0.6c-0.8-0.3-1.5-0.2-2.4-0.1
				c-0.2,0.2-0.6,0.1-0.9,0.3c-0.5-0.2-0.9,0.2-1.4,0.4c-0.2,0.3-0.5,0.1-0.9,0.2c-0.2,0.2,0.2,0.3,0.1,0.5c0,0.6,0.6,1,0.8,1.5
				c-0.3,0.8-0.9,1.5-1.4,2.2c-0.1,0.4-0.2,0.7-0.6,1c-0.6,1.1-1.2,2.4-2,3.4c-0.2,0.2,0,0.7-0.4,0.7c-0.5,0.6-0.7,1.4-1.2,1.9
				c-0.8,1.8-1.9,3.3-2.8,5l-0.1-0.1c0-1-0.4-2.1-0.2-3.2c0.6-0.3-0.2-0.6-0.2-0.9c0,0-0.1,0-0.1-0.1c-0.2,0.2-0.6,0.3-0.6,0.6
				c0,0.3,0.2,0.2,0.2,0.5c0.1,0.2-0.1,0.2-0.2,0.2c-0.5,0.6-0.5,1.4-0.7,2.1c-0.6,1.2-2.2,1.9-1.8,3.5c-0.5,0.8-0.5-0.4-0.9-0.3
				c-0.4,0.3-0.4,0.7-0.5,1.1c-0.1,0.2,0.2,0.6-0.2,0.7c-0.3-0.1-0.5,0.4-0.8,0.1c0.1-0.6-0.7-0.7-0.6-1.4c0.4-0.3,0.2-0.7,0.1-1
				c0,0-0.1,0-0.1,0c-0.1-0.2-0.3-0.5-0.7-0.4c-0.3,0.7-0.9-0.2-1.2,0.6c-0.3,0.5,0.7,0.5,0.4,1c-0.2,0.4-0.6,0.2-0.9,0.5
				c-0.2,0.4-0.1,0.9-0.5,1.2c-0.1,0.3,0.2,0.3,0.2,0.5c-0.2,0.2,0.1,0.6-0.2,0.8c0.1,0.7-0.8,0.4-1.3,0.4c-0.5,0-1,0.1-1.4-0.3
				c-0.2,0.2-0.5,0.7-0.3,1.1c-0.2,0.6,0,1.2,0.1,1.7c-0.1,0.1-0.3,0-0.5,0.1c-0.3,0.8-0.3,1.8-0.5,2.6c-0.4,0.6,0.3,1.3-0.2,1.8
				c0.4,0.4-0.1,0.9,0.1,1.3c0.2,0.4-0.3,0.8,0,1.2c-0.1,0.9,0.2,1.3,0.3,2.1c-0.1,0.2-0.3,0.1-0.5,0.1c-0.3,0.1,0.1,0.2,0,0.4
				c-0.3,0.1-0.2,0.5-0.2,0.7c0.2,0.4,0.5,0,0.7,0.2c0.1,0.4,0.4,0.6,0.7,0.8c0.1,0.3-0.3,0-0.3,0.3l0.5,0.2
				c0.2-0.2,0.6-0.3,0.6,0.1c-0.2,0.2-0.5-0.2-0.6,0.2l0.7,0.4c0.1-0.1,0.3,0,0.3-0.2c0-0.1-0.2-0.1-0.2-0.2c0-0.1,0-0.2,0.1-0.2
				c0.2,0.2,0.7,0.3,0.4,0.7c0,0.1,0.1,0.2,0.2,0.2c0.8,0.6,2,0.3,2.6,1.1c0.1-0.1,0.1-0.3,0.3-0.2c0.1,0.5,0.6,0.3,0.9,0.5
				c0.3,0.1,0.2-0.3,0.4-0.2c0.1,0.6,1,0.2,1,0.8c0.1-0.1,0.2-0.2,0.3-0.4c0.5-0.3,0.1,0.3,0.3,0.5c0.3,0.2,0.5-0.1,0.6-0.3
				c0.6-0.2,0.2,0.5,0.4,0.7c0.1,0.1,0.2,0.2,0.3,0c0.5,0.2,0.8-0.5,1.1,0c0.9-0.1,1.4,0.9,2,1.3c0.3,0.4,0.8-0.2,1.1,0.2
				c0,1.1,1.3,1.1,2,1.6c0.1,0,0.2-0.1,0.2,0c0.6,0.5,1.2,1,2,1.3c0.2,0.5,0.7,0.3,1.1,0.5c0.5,0.3,1,0.7,1.4,1c0.9,0,1.3,1,2.2,0.9
				c0.2,0.4,0.6,0.8,1,0.7c0.6,0.5,1.6,0.4,2.3,0.7c0.6,0.6,1.4,0.9,2,1.5c0.4,0.3,0.7-0.1,1.2,0c0.2,0.4,0.7,0.5,1.2,0.6
				c0.3,0.5,1,0.2,1.3,0.8c0.4,0.2,0.7,0.5,1,0.5c0.4,0.1,0.7,0.5,1.1,0.4c0.2,0.2,0.4,0.5,0.8,0.5c0.2,0.3,0.6-0.1,0.9,0.2
				c0.5-0.3,0.7,0.5,1.2,0.3c0.5,1,1.6,0.2,2.2,1.1c0.9-0.1,1.2,0.9,2.1,0.4c0.2,0.2,0.6,0.4,0.9,0.3c0.6,0.3,1,0.3,1.6,0.7
				c0.7-0.2,0.9,0.4,1.5,0.4c0.6,0.6,1.2,0.1,1.9,0.6c0.5-0.1,0.6,0.4,1.1,0.4c0.6,0.7,1.7,0.2,2.2,1.1c0.4,0,0.9,0.2,1.4,0.1
				c0.6,0.6,1.4,0.4,2.1,0.9c0.2,0.1,0.5,0,0.7,0.2c0.9,0.1,1.6,0.6,2.5,0.6c0.6,0.3,1.4,0.5,2,0.7c0.7,0.1,1,0.5,1.7,0.5
				c0.8,1,2.8,0.4,2.9,2c0.2-0.1,0.4,0,0.6,0c0.4-0.2,0-0.7,0-1c0.1-0.2,0.2-0.3,0.1-0.5c0-0.2-0.2-0.4-0.2-0.6
				c-0.1,0.1-0.2,0.1-0.3-0.1c0-1.1,0-2.5,0.3-3.7h0.2c0,0.9-0.3,1.7-0.2,2.6c-0.2,0.2-0.1,0.6,0,0.7l0.2-0.7l0.1,0.2v-0.4
				c-0.2-0.2,0.1-0.6,0.1-0.9c-0.2-0.2,0-0.4,0.1-0.5c-0.1-0.1-0.1-0.4-0.1-0.7c0.2-0.2-0.1-0.8,0.2-1.1c-0.1-0.2,0-0.3,0-0.5
				c0-0.4,0.1-1,0-1.4c0.2-0.2,0.1-0.6,0.1-0.9h0.1l0.1-1.1c0-0.5,0.4-1.1,0.1-1.7c0.2-0.6-0.2-1.3,0.1-1.9c0.1-0.2,0.1-0.5-0.1-0.7
				c0.2-0.4,0.1-0.9,0.2-1.3c-0.3-0.1,0-0.3,0-0.5c-0.1-0.5,0.1-1,0-1.4c-0.1-0.3,0.4-0.8,0-0.9c0.1,0,0-0.1,0-0.2l0.2,0.1l0-0.7
				c-0.1-0.2,0.2-0.4-0.1-0.4c0.2-0.2-0.1-0.4,0.2-0.6c0-0.6,0-1.4,0.1-2c-0.2-0.4,0.2-1,0-1.5c0.1-0.2-0.1-0.5,0.1-0.7
				c0-0.7,0.1-1.3,0.3-1.9c0-0.6,0.1-1.2,0.2-1.7C166.9,124.7,166.8,124.9,166.6,124.9z M166.8,124.2L166.8,124.2l-0.1-0.3
				C166.8,123.9,166.8,124.1,166.8,124.2z M164.3,108.1L164.3,108.1c0,0.2-0.2,0.4-0.6,0.5C163.8,108.3,164.2,108.4,164.3,108.1z
				 M162.4,105.9c-0.2-0.2-0.4-0.4-0.2-0.6c0.2,0.1,0.5,0.1,0.4,0.4c0.1,0,0.2,0,0.2,0.1C162.7,106,162.5,106,162.4,105.9z
				 M162.6,103c-0.1,0.1-0.1-0.1-0.2-0.1l0.1-0.3c0.1,0,0.3,0,0.3,0.2C162.9,103,162.7,103,162.6,103z M153.6,116
				c0.1,0.1,0.1,0.5,0.4,0.5c0.1,0.2-0.2,0.2-0.3,0.3c-0.1,0-0.2,0-0.3-0.1C153.4,116.4,153.8,116.3,153.6,116z M133,81.4L133,81.4
				c0,0-0.3-0.1-0.2-0.2C132.9,81.2,133.1,81.3,133,81.4z M132.9,80.8c-0.1-0.5,0.3-0.9,0.4-1.4C133.2,79.8,133.1,80.4,132.9,80.8z
				 M164,120.6c0.3,0.3,0.5,0.8,0.6,1.3l-0.5,0.1C163.8,121.5,163.8,121,164,120.6z M163.4,116.4L163.4,116.4c0-1.1-0.1-2.3,0-3.3
				h0.1C163.3,114.3,163.6,115.4,163.4,116.4z M163.3,112.5l0,0.6C163.2,112.9,163.3,112.6,163.3,112.5z M161.6,118.8
				c0-0.2-0.2-0.3-0.1-0.5c0.6,0.2,1.1,0.7,1.5,1.1c0.2,0.8,0,1.6,0.1,2.4c-0.2,0.2-0.6,0.2-0.8,0.2c-0.2-0.3,0-0.8-0.1-1.2
				C162,120.3,162.2,119.4,161.6,118.8z M156.6,120c-0.1,0.1-0.2,0.1-0.3,0.2v-0.3C156.5,119.9,156.6,119.9,156.6,120z M156.3,122.5
				l0.2-1.3C156.7,121.5,156.4,122.1,156.3,122.5z M156.2,118.9c0,0.3,0.4,0.4,0.2,0.8c-0.1,0.2-0.2,0-0.3,0
				C156.1,119.5,156,119.2,156.2,118.9z M156.1,124L156.1,124l0,0.3C156,124.2,156,124,156.1,124z M154.7,123.1
				c0.3-0.1,0.8,0.1,1.1-0.1c-0.2,2.7-0.5,4.9-0.8,7.4l-0.2,0.2c-1.6-0.4-3.3-0.2-5-0.4c0-0.7-0.2-1.5-0.3-2.2c0.2-0.5-0.1-1,0-1.5
				c-0.3-0.9,0.4-1.3,0.8-2c0.3-0.5,0.6-1,0.9-1.4C152.4,123.1,153.6,122.9,154.7,123.1z M155.5,129.3l0.1-0.2
				C155.7,129.2,155.6,129.3,155.5,129.3C155.6,129.4,155.6,129.3,155.5,129.3z M155.5,130.6L155.5,130.6c-0.2-0.2,0-0.5,0-0.7
				C155.6,130,155.6,130.4,155.5,130.6z M155.6,128.7c-0.1,0-0.2-0.2,0-0.3h0.1L155.6,128.7z M154.6,135.1L154.6,135.1
				c0.2-1,0.2-2.1,0.6-2.9h0.1c-0.1,1.2-0.4,2.4-0.5,3.6c0,0.1-0.1,0-0.2,0C154.6,135.6,154.7,135.3,154.6,135.1z M154.6,133.2
				l-0.1,0.1c0,1.1-0.5,1.8-0.4,2.9c-0.6,1-2.1,0.9-2.8,1.8c-0.2,0.1-0.4,0.4-0.6,0.2v-0.6h-0.1v-0.1h0.1c0.2-0.4-0.3-0.7,0-1
				c-0.4,0-0.1-0.3-0.1-0.5l-0.2-0.6h0.1c0.1-0.5-0.3-0.9-0.1-1.4l-0.3-2.2c0.4-0.2,0.8,0,1.1,0.1c1,0,2.3,0.2,3.4,0.2
				C154.8,132.5,154.4,132.8,154.6,133.2z M154.1,139.4c-0.1-0.2-0.1-0.5,0.1-0.5C154.2,139,154.4,139.4,154.1,139.4z M154.3,138.3
				l0-0.3c0.1,0,0.2,0,0.2,0.2C154.4,138.2,154.3,138.3,154.3,138.3z M151.1,139.5c0.7-0.1,1.5-0.1,2.1,0.3c0.2,0.1,0.4-0.2,0.5,0.1
				c-0.3,0.4-1.1,0.2-1.5,0.4c-0.4,0.1-0.9,0.3-1.2,0C151,140.1,150.6,139.6,151.1,139.5z M151.2,139.2L151.2,139.2
				c0.2,0,0.2,0.2,0.2,0.2L151.2,139.2z M153.6,139.4l-1.8-0.2v-0.3h-0.4v-0.1c0.7-0.3,1.3-1,2.1-0.9l0.3,0.9
				C153.8,138.9,154,139.3,153.6,139.4z M113,124.4c0.1,0.1,0,0.2,0.1,0.3h0.5c0,0.2,0.1,0.2-0.1,0.4
				C113.1,125,112.9,124.7,113,124.4z M113.2,126.2c0,0.1,0,0.3-0.2,0.3c-0.1,0-0.1-0.1-0.1-0.2
				C113.1,126.3,113.1,126.2,113.2,126.2z M111.2,127.5c-0.5,0.2-0.9,0.1-1.5,0.1c-0.2-0.4-0.1-1-0.1-1.4c0.4-0.3,0.8-0.1,1.2,0
				c0.2-0.1,0.4,0,0.6,0.1l-0.2,0.3l0.2-0.1c0.1,0.3-0.4,0.4-0.2,0.7c0.2,0,0.3-0.3,0.5-0.2C111.6,127.1,111.1,127.1,111.2,127.5z
				 M111.5,128.5c-0.6,0.1-1.2-0.1-1.8-0.2c0-0.1,0.1-0.2,0.2-0.2c0.4,0.2,0.9,0.2,1.3,0.2c0.1-0.1,0.2-0.2,0.4-0.2
				C111.6,128.2,111.6,128.4,111.5,128.5z M110.5,125.5c-1.2-0.1-1.8-0.1-2.9-0.4c-0.4,0-0.7-0.2-1-0.2c-0.4-0.2-0.9-0.4-1.4-0.5
				c-0.2-0.5,0-1.3-0.1-1.8l-0.1,0.1c0-0.1-0.1-0.1-0.1-0.1c0-0.3,0.1-0.3,0.1-0.6c0-0.2-0.1,0-0.2-0.1l0.2-0.1
				c0-0.3-0.1-0.4-0.1-0.6h0c0-0.1,0.1-0.3-0.1-0.3h-0.1c0-0.2,0.4-0.1,0.2-0.4c-0.1-0.1-0.2,0-0.2-0.2v-0.1l0,0
				c0.1-0.1,0.2-0.3,0.1-0.4c-0.1,0,0,0.1,0,0.1h0c0.2-0.5,0.1-1,0-1.6l0.1-0.1c0.7,0.3,1.5,0.4,2.2,0.6c0.3-0.1,0.7,0.1,1,0
				c0.9,0.2,1.7,0.1,2.7,0.1l-0.4,0.4c0.1,0.1,0.4-0.1,0.4,0.2c0.2,0,0.4-0.2,0.6-0.2l-0.2,0.3c0.2,0,0.2,0.2,0.3,0.3
				c-0.1,0.1,0.1,0.3-0.1,0.5l0.2,0.1c-0.1,0.2-0.2,0.2-0.1,0.4c0.1,0.1,0.1,0.2,0.2,0.2c0,0.1-0.2,0.2-0.2,0.3l0.2,0
				c0.1,0.2-0.4,0.2-0.2,0.4l0.4-0.2c-0.1,0.2-0.5,0.3-0.6,0.6c-0.1,0.4,0.2,0.4,0.1,0.7c0.2,0,0.4-0.4,0.7-0.4
				c-0.1,0.4-0.8,0.5-0.7,1c0.2-0.2,0.5-0.2,0.7-0.4c0,0.3-0.5,0.4-0.6,0.7c0.3,0.1,0.3-0.4,0.6-0.2c-0.1,0.4-0.6,0.3-0.7,0.6
				c0.3,0.2,0.6-0.6,0.7-0.2c-0.1,0.2-0.6,0.2-0.5,0.5c0.2,0.1,0.4-0.1,0.5-0.1v0.2C111.5,124.9,111.3,125.9,110.5,125.5z
				 M109,127.4l-1.7-0.3c-0.1-0.5-0.2-1.2,0.1-1.6c0.6,0.3,1.4,0,1.7,0.6l0,1.2L109,127.4z M109.2,128.2c-0.2,0.1-0.4,0-0.5,0
				C108.7,127.9,109.2,128,109.2,128.2z M105.7,127.4c0.3,0.5,0.9,0,1.3,0.4c0.5,0.1,1.2-0.2,1.4,0.4c-0.8,0-1.6-0.2-2.4-0.4
				c-0.2-0.2-0.6-0.1-0.8-0.2C105.3,127.3,105.6,127.5,105.7,127.4z M105.3,125.1c0.5,0.3,1,0.3,1.5,0.3c0.3,0.5,0,0.9-0.1,1.4
				c-0.5-0.2-1.3-0.1-1.5-0.8C105.2,125.7,105.3,125.4,105.3,125.1z M105.1,127.4c0,0.1-0.2,0-0.2,0
				C104.9,127.2,105.2,127.3,105.1,127.4z M111.2,119.3c0-0.1,0.1-0.2,0.2-0.2C111.4,119.2,111.3,119.3,111.2,119.3z M112,122.1
				c0,0.1-0.2,0.2-0.2,0.3c-0.1,0,0-0.1,0-0.2C111.8,122.2,111.8,122.1,112,122.1z M112.2,124.9L112.2,124.9
				c0.3,0.1,0.2-0.4,0.5-0.2l-1,0.8C111.8,125.3,112,125,112.2,124.9z M112.5,122.7L112.5,122.7c0.2,0,0.2,0.2,0.2,0.3l-0.2,0.1
				C112.3,123,112.6,122.9,112.5,122.7z M112.5,121.1c0-0.1-0.1-0.2,0-0.3c0.1,0,0.1,0.1,0.1,0.2C112.7,121,112.6,121,112.5,121.1z
				 M112.6,123.2c0.1,0.1,0,0.2,0,0.3c-0.1,0-0.1,0-0.1-0.1C112.5,123.4,112.5,123.3,112.6,123.2z M112.5,123.7c0.1,0,0.2,0,0.2,0.1
				c-0.1,0.1-0.1,0.2-0.2,0.1C112.4,123.8,112.5,123.7,112.5,123.7z M112.6,124c0.1,0.1,0.1,0.3,0,0.4c-0.1,0-0.1,0.1-0.2,0.1
				C112.6,124.4,112.4,124.1,112.6,124z M112.3,118.4c-1.4,0-2.8,0.2-4,0c1.3-0.2,2.4,0,3.7-0.1c0.2,0.1,0.4-0.3,0.7-0.2
				C112.7,118.2,112.5,118.4,112.3,118.4z M114.2,112.5c0.4-0.4,0.6,0.3,1,0c0.4,0.4,0.5-0.2,0.8-0.2c0.1,0.2,0,0.4-0.1,0.5
				c-0.6,0-1.1,0.1-1.6,0.1C114.2,112.8,114.1,112.6,114.2,112.5z M113.9,110.7l0-0.1l0.3,0.1L113.9,110.7z M115.2,111.9
				C115.2,111.9,115.2,111.9,115.2,111.9c0.2,0.2,0,0.1,0,0.2c-0.2-0.3-0.6,0-0.9-0.1C114.5,111.7,114.9,111.8,115.2,111.9z
				 M114.8,110.5L114.8,110.5l-0.2,0.2C114.6,110.6,114.8,110.6,114.8,110.5z M118.9,109.9c-0.2,0.1-0.2,0.5-0.5,0.5
				c0-0.2-0.4-0.4-0.2-0.6c0.1-0.1,0.3-0.2,0.2-0.4l-0.3-0.2c0.2-0.1,0.3-0.5,0.5-0.2C118.2,109.5,119.3,109.4,118.9,109.9z
				 M120.2,117.1c0.2-0.1,0.2-0.2,0.3-0.2c0.2,0.2,0,0.5,0.1,0.7c0.2,0.1,0.3,0.3,0.4,0.5c-0.2,0.1-0.6-0.1-0.6,0.2
				C120,118.1,120.4,117.5,120.2,117.1z M121.1,113.5c-0.1,0.2-0.1,0.6,0.1,0.7c0.1,0,0.1,0.2,0,0.3c-0.6-0.1-0.1,1-0.8,0.6
				c-0.1-0.9-0.1-2.1-0.1-3.1c-0.1-0.6-0.2-1.2-0.1-1.8c0.2,0.1,0.4,0,0.6,0C121.3,111.4,120.6,112.4,121.1,113.5z M121.3,108.2
				L121.3,108.2c0.5,0,0.5,0.6,0.5,0.9c-0.1,0.2-0.2,0.5-0.4,0.6c-0.1,0-0.1-0.1-0.2-0.1C121.1,109,121.5,108.7,121.3,108.2z
				 M124.2,105.1L124.2,105.1c-0.2,0-0.4-0.2-0.2-0.5C124.3,104.6,124.1,105,124.2,105.1z M124.2,105.9L124.2,105.9
				c-0.2,0.1-0.4-0.2-0.2-0.3L124.2,105.9z M126.2,108.1L126.2,108.1c-0.6,0.3-1,0.2-1.6,0.4c-0.5-0.1-1,0.2-1.5,0.2v-0.1
				C124.1,108.3,125.2,108.1,126.2,108.1z M125.5,107.5c0.2,0,0.4,0.1,0.5,0.2c-0.3,0.2-0.9,0.1-1.3,0.1
				C124.7,107.6,125.2,107.6,125.5,107.5z M125,106.8c0.2,0,0.3-0.1,0.4,0.1c-0.2,0.2-0.3,0.1-0.5,0.2
				C124.8,107,124.9,106.8,125,106.8z M126.5,108.7L126.5,108.7c0-0.5,0.7-0.3,0.9-0.5c0.7-0.2,1.1,0.5,1.8,0.2
				c0.1,0.1,0.2,0.2,0.1,0.3c-1,0.2-1.7-0.1-2.7,0.3c0-0.1-0.1-0.2-0.1-0.2c-0.3,1.1-0.1,2.4-0.2,3.6l-0.1,1.6
				c-0.6-0.2-1.4-0.2-1.9,0.3c-0.5,0-0.5-0.3-0.6-0.7c0-0.2,0.1-0.6-0.1-0.8c-0.2,0.4,0.1,0.9-0.1,1.4c-0.2-0.4,0-1.1,0-1.6
				c0.1,0.1,0,0.2,0.1,0.2c0.2-0.2,0-0.5,0.1-0.8l1.7-0.1c0.1,0.3-0.1,0.8,0.1,1.1c0.1-0.2,0.1-0.2,0.3-0.4c0.2-0.7,0-1.4,0-2
				l-0.2,0.2c0.5-0.3,0.1-1.1,0.4-1.6c0-0.2-0.4-0.4-0.1-0.7C126.2,108.4,126.5,108.4,126.5,108.7z M126.5,107.4
				c0.1,0.1,0.3,0,0.4,0.2c-0.1,0.2-0.4,0.1-0.5,0.2C126.3,107.6,126.4,107.5,126.5,107.4z M127.9,107.9c-0.1-0.1,0.2-0.1,0.2-0.1
				C128.1,108,128,107.8,127.9,107.9z M129.5,116.6c0.5,0,0.8-0.2,1.2-0.1v0.2h-0.1c0.1,0.4-0.1,0.8-0.4,1.1
				c-0.2,0.2-0.4,0.2-0.7,0.1C129.4,117.5,129.5,117,129.5,116.6z M130.1,110.1c0.1,0.6-0.2,1.5,0.2,2c0.1,0.7-0.2,1.4,0.1,2
				c0.2-0.1,0-0.4,0-0.5c-0.1-0.6,0.1-1,0-1.6c0.3-0.3,0.6,0.2,1,0.1c0.3,0,0.8-0.2,1.1,0l0.3-0.1c-0.2,0.8,0.3,1.7,0,2.4
				c-0.4-0.1-0.5-0.6-1.1-0.4c-0.1,0.2-0.3,0.2-0.5,0.3c-0.4-0.4-0.5,0.5-0.9,0.2c-0.2-0.2-0.3-0.5-0.6-0.6
				c-0.4-1.2,0.1-2.4-0.1-3.6c0.4-0.3-0.4-0.6,0.2-0.9c0.1-0.2-0.2-0.3-0.2-0.4c0-0.3-0.1-1,0.4-0.7
				C129.7,109.1,130.2,109.4,130.1,110.1z M131.6,108.5c0.5-0.1,1,0,1.3,0.4c-0.1,0.2-0.2,0-0.2,0l-2,0.1c-0.2-0.1-0.2-0.3-0.2-0.5
				c0.2-0.1,0.6-0.1,0.9-0.1L131.6,108.5z M131.4,108.1c0.3-0.5,0.8-0.1,1.2,0v0.1L131.4,108.1z M132.5,111.6
				c-0.1,0.1-0.2,0.1-0.3,0.1l-0.1,0C132.3,111.7,132.4,111.3,132.5,111.6z M130.7,109.5c0.2,0.1,0.4,0.3,0.5,0.5
				c-0.2,0.2-0.4-0.2-0.6-0.1c0.3,0.3,0.7,0.7,0.8,1c-0.2,0.2,0,0.5-0.1,0.6c-0.3-0.1-0.7,0.1-0.8-0.3
				C130.6,110.7,130.4,110.1,130.7,109.5z M133,108.9c0.2-0.3,0.5,0,0.5,0.3c-0.3,0.6,0.4,1.1,0.1,1.6c-0.1,0,0-0.2-0.2-0.2
				c0,1.2,0,2.5-0.1,3.8h-0.1c0.1-0.3-0.1-0.6-0.2-0.9C133.1,111.9,133.2,110.4,133,108.9z M136.2,114.7l0.1,0.1l0,1.2h-0.1
				C136,115.6,136.3,115.1,136.2,114.7z M136.2,116.5c0.3,0.1,0.2,0.6,0.2,0.7c-0.1,0-0.1,0.1-0.2,0.1
				C136.1,117,136,116.7,136.2,116.5z M136.9,122.1c0.2,0,0.5-0.2,0.5,0.2c-0.1,1.3,0.1,2.2,0,3.4c-0.1,0.2-0.4,0.1-0.5,0.1
				C136.8,124.4,136.9,123.4,136.9,122.1z M137.3,109.4L137.3,109.4c0.2-0.6,0-1.8,0-2.6c-0.3-0.7,0.1-1.6-0.2-2.4
				c0.2-0.4-0.1-1,0.1-1.4c-0.2-0.6,0.2-1.3,0-1.9c-0.2-0.5,0-0.9-0.2-1.4c0.3,0.1,0-0.3,0.1-0.5c-0.2-0.2,0.2-0.6,0-0.9
				c0.2-0.9-0.3-1.5,0-2.3c-0.1-0.7,0-1.3-0.1-2h0.1c0.5,1.1,0.8,2.5,1.5,3.6l-0.1,0.1c0.7,1.9,1.5,3.7,1.9,5.8
				c0.7,3.9,1.4,7.3,2.2,11.1c-0.5,0-0.7-0.7-1.3-0.3c-0.2,0.1-0.4,0.3-0.6,0.1l-0.1-0.1l-0.2,0.1c-0.5-0.1-0.9-0.4-1.5-0.4
				c-0.5-0.7-0.9-1.5-1.3-2.3l-0.2-0.1l0,0c-0.3-0.2-0.2-0.7-0.2-1C137.3,110.1,137.4,109.8,137.3,109.4z M137.1,92.6l0.2,0.3
				c-0.1,0.1-0.2,0.1-0.2,0.1C137,92.8,136.9,92.7,137.1,92.6z M144.4,120.8c0-0.3-0.3-0.6-0.2-0.9
				C144.4,120.1,144.6,120.5,144.4,120.8z M144.5,121.8c-0.1-0.2-0.1-0.6-0.1-0.9C144.6,121.1,144.6,121.5,144.5,121.8z
				 M144.4,124.4c0.1-0.1,0.1,0.1,0.1,0.2c0,0,0,0.1,0,0.2h-0.1L144.4,124.4z M143.9,119.1c0.2-0.2,0.5,0,0.6-0.1v0.1
				C144.3,119.2,144.2,119.1,143.9,119.1z M142,119.5l-0.5-0.1v-0.2c0.2,0,0.4,0.1,0.5-0.1c0.1,0.2,0.6,0,0.7,0.3
				C142.4,119.6,142.3,119.5,142,119.5z M142.5,125.6c-0.2,0-0.5,0.3-0.6,0.1c-0.1-0.2,0.1-0.2,0.2-0.2
				C142.2,125.4,142.4,125.5,142.5,125.6z M140.6,122.5c0-0.4,0.5-0.2,0.7-0.3c0.1,1.2,0.3,2.4,0.2,3.7c-0.2,0.2-0.5,0.1-0.7,0
				C140.5,124.9,141,123.6,140.6,122.5z M140.4,122.2c0.1,0.5,0.2,1,0.1,1.5C140.3,123.4,140.4,122.7,140.4,122.2z M140.4,121.7
				c-0.3-0.4,0.2-0.8,0.1-1.2c-0.1-0.3,0.2-0.8-0.1-1c-0.1,0.3-0.3,0.5-0.7,0.4c-0.6-0.2-1.3,0.1-1.9,0c-0.4-0.1-0.1-0.5-0.2-0.7
				c0.2-0.1,0.3-0.1,0.5-0.2c1.1,0.1,2.2,0,3.2,0.2c-0.2,0.8,0.2,1.5,0,2.4C141.2,121.9,140.6,121.8,140.4,121.7z M139.8,125
				c0,0.3,0.2,0.6,0.1,0.8c-0.6-0.1-1.5,0.1-2.1-0.1c0-0.5,0.2-0.8,0.7-0.7C138.9,125,139.4,125,139.8,125z M139.1,122.7
				c0.1,0,0.1,0.1,0.1,0.1c0,0,0,0.1,0,0.1h-0.1L139.1,122.7z M139.4,123.4C139.3,123.4,139.3,123.4,139.4,123.4
				c-0.2-0.1-0.1-0.3,0-0.3C139.6,123.2,139.3,123.2,139.4,123.4z M137.6,115.3c-0.1,0-0.1-0.4,0.1-0.3
				C137.7,115.1,137.7,115.2,137.6,115.3z M137.7,117.3L137.7,117.3c-0.1,0.1-0.1,0.1-0.1,0.2v-0.3
				C137.7,117.1,137.7,117.2,137.7,117.3z M137.8,117.7c0.5,0.1,1.3-0.2,1.4,0.5c-0.3,0-0.7,0.1-1,0.1c-0.2-0.2-0.5,0.1-0.5-0.2
				C137.5,117.9,137.6,117.7,137.8,117.7z M139.1,116.5l0.1,0.4c-0.1,0.2,0.1,0.5-0.1,0.6l-0.9-0.1l-0.3-0.8
				C138.2,116.5,138.7,116.5,139.1,116.5z M137.8,116.1c0.2-0.3,0.2-0.8,0.6-1c0.3,0,0.7,0.1,0.7,0.4c-0.1,0.3,0.1,0.9-0.5,0.7
				C138.3,115.9,138.1,116.3,137.8,116.1z M138.1,118.8c0,0.1-0.2,0.2-0.3,0.1l0,0C137.9,118.8,138,118.7,138.1,118.8z M141.5,119.8
				l0.2,0c0,0.6,0.1,1.2,0,1.7l-0.1-0.1C141.6,120.9,141.5,120.3,141.5,119.8z M141.7,126.4c0.1,0.2-0.1,0.4-0.3,0.5h-0.1
				C141.1,126.6,141.4,126.3,141.7,126.4z M141.7,122.3c0.1,0.4,0.1,0.9,0.1,1.4l-0.1-0.1C141.7,123.2,141.5,122.8,141.7,122.3z
				 M142.4,119c-1.4,0-2.5-0.2-3.8-0.2c0.1-0.2,0.3-0.2,0.4-0.2c1.6,0.3,3.5-0.1,4.7,0.5C143.3,119.1,142.8,119,142.4,119z
				 M141.8,115.5c0.1,0.1,0.1,0.2,0.1,0.3C141.9,115.8,141.7,115.6,141.8,115.5z M141.8,117.7c-0.2,0-0.5,0-0.7,0
				c0.2-0.3,0.4-0.8,0.7-1C142,116.9,141.8,117.3,141.8,117.7z M141.3,114.8c-0.1-0.1,0-0.2,0.2-0.2c0.1-0.1,0.3-0.1,0.3,0.1
				C141.8,115,141.5,114.8,141.3,114.8z M141.4,116.1c0,0.4-0.4,0.1-0.6,0.2l-0.1-0.1c0.1-0.2,0.2-0.3,0.4-0.4
				C141.4,115.8,141.4,115.9,141.4,116.1z M141.1,116.6c0,0.3-0.2,0.6-0.4,0.9c-0.3-0.1-0.4-0.4-0.4-0.7
				C140.6,116.5,140.8,116.6,141.1,116.6z M140.4,115.2l-0.2,0.4c-0.2,0-0.3-0.2-0.2-0.4L140.4,115.2z M140.1,114.8h0.3
				c0,0,0,0.1,0,0.1c0,0.1-0.1,0-0.2,0L140.1,114.8z M140.6,118.2c-0.3,0.1-0.7,0.1-1,0l0.1-0.3C140,117.9,140.4,118,140.6,118.2z
				 M139.8,115.8c0,0.2,0,0.3-0.1,0.4c-0.1,0-0.1,0-0.1-0.1c0-0.2-0.1-0.4,0.1-0.6C139.8,115.5,139.9,115.7,139.8,115.8z
				 M139.6,116.6c0.1-0.1,0.2,0.1,0.2,0.2c-0.1,0.2-0.1,0.4-0.2,0.4L139.6,116.6z M143,116.7c0.2,0.1,0.1,0.5,0.1,0.7
				c-0.2,0.2-0.3,0.2-0.6,0.3C142.5,117.3,142.7,116.9,143,116.7z M142.8,116c0.2,0,0.2,0.2,0.3,0.2c0.1,0.2-0.1,0.2-0.2,0.2
				C142.8,116.3,142.8,116.2,142.8,116z M142.4,116.9l0.1-0.2c0.1,0,0.1,0.1,0.1,0.2C142.5,116.9,142.4,117,142.4,116.9z
				 M142.6,116.3c-0.2,0.2-0.1-0.3-0.2-0.3l0-0.4C142.5,115.8,142.6,116.1,142.6,116.3z M143.9,119.7c0.1,0.7,0.1,1.3,0.1,2
				c-0.1,0.1-0.2,0.2-0.4,0.2c-0.3-0.7,0.5-1.5-0.3-2.1C143.5,119.7,143.7,119.6,143.9,119.7z M143.8,122.3c0,0.1,0.2,0,0.2,0.1
				c0,0.2-0.2,0.2-0.4,0.2C143.4,122.5,143.6,122.2,143.8,122.3z M143.9,123.4c0.1,0.1,0.2,0.3,0.1,0.4c-0.1,0-0.2-0.1-0.2-0.2
				L143.9,123.4z M143.9,126.6h0.2c0.1,0.1,0.1,0.2,0,0.2c0,0-0.1,0.1-0.2,0.1V126.6z M144.4,118.7l-1.2-0.2
				c0.2-0.2,0.6-0.4,0.9-0.4c0.2,0.1,0.5,0,0.5,0.2C144.7,118.5,144.6,118.7,144.4,118.7z M143.8,116.2c0.1-0.3-0.6-0.6-0.1-0.9
				c0.4,0,0.5,0.4,0.7,0.7v0.4C144.1,116.5,143.8,116.4,143.8,116.2z M144.3,116.9c-0.1,0.4-0.4,0.6-0.8,0.8c0.1-0.3,0-0.7,0.3-1
				C144,116.8,144.3,116.6,144.3,116.9z M144.6,117.7c0,0.2-0.2,0.2-0.4,0.2c-0.2-0.2,0.1-0.3,0.1-0.5
				C144.7,117,144.7,117.6,144.6,117.7z M144.6,115.6c0-0.2,0.2-0.2,0.4-0.2l-0.2,0.4L144.6,115.6z M144.6,115.1
				c-0.8,0.2-0.8-0.9-1.5-0.7c-0.3-0.4-0.3-0.7-0.4-1.2h-0.1c0.1-1.6-0.7-2.8-0.7-4.4c-0.2-0.1,0-0.4-0.2-0.5
				c-0.4-1.1-0.4-2.4-0.8-3.5V104c1,2.5,1.8,5.2,2.9,7.6c0.2,1.1,0.8,2.1,1,3.2C144.8,114.9,144.7,115,144.6,115.1z M137.4,112.1
				l0.2,0.1c0.4,0.7,0.8,1.4,1.2,2.1c-0.2,0.5-0.9,0.4-1.3,0.3C137.3,113.8,137.4,112.9,137.4,112.1z M140.2,126.2l0.9,0.2
				c0.1,0.3-0.3,0.6,0,0.9c0.2,0.1,0.4,0,0.5-0.2c0.4-0.1,1.2,0.5,1.2-0.3c0-0.3,0.3-0.2,0.6-0.2c0.3,0.1,0.2,1,0.8,0.6
				c0.2-0.2,0.2-0.6,0.5-0.6c0.7,0.2,1.3,0,2,0c0.3,0.2,0.7-0.1,0.9,0.3c0.2-0.6,1-0.6,1.5-0.9c0.2,0.5-0.3,1.1,0.2,1.5
				c0.1,1-0.1,1.9,0.1,3c-1.3,0.2-2.3-0.1-3.6-0.1c0-0.2,0.2-0.1,0.3-0.2c0.7-0.4,0.4-1.2,0.4-1.8c-0.3-0.5-0.9-0.5-1.5-0.5
				c-0.3,0.2-0.7,0.5-0.9,0.9c-0.2,0.4,0,0.8,0.2,1.1c0.1,0.2,0.4,0.2,0.4,0.4c-1.3,0-2.8-0.4-4.1-0.4c-0.9,0-1.8-0.2-2.7-0.4
				c-1.3,0.2-2.3-0.6-3.5-0.4c-0.4-0.1-0.9,0-1.3-0.2c-0.8,0.1-1.5-0.4-2.3-0.4c-0.2-0.2-0.9-0.1-0.6-0.6c0.2-0.2,0-0.5,0.2-0.7
				c0.1-0.3-0.3-0.4-0.1-0.6l0.3-0.5c0.2,0.3,0.3-0.3,0.5-0.3c1,0.5,2,0.2,3.1,0.4c0.8-0.2,1.6,0.1,2.4,0.2
				C137.8,125.8,139,126.2,140.2,126.2z M145.1,116.9l0.2,0c0,0.6,0,1.3-0.3,1.8C145.2,118.2,144.9,117.6,145.1,116.9z M145.7,116.8
				c0.2,0.7,0.5,1.4,0.8,2c-0.3,0.1-0.6,0-0.9-0.1C145.6,118.1,145.4,117.4,145.7,116.8z M146.6,119.3c-0.4,0.3-1-0.1-1.5-0.1v-0.1
				C145.6,119.2,146.1,119.1,146.6,119.3z M146.7,125.2c-0.3-0.4,0-1.2-0.3-1.7l0.1-1h0.1C146.8,123.5,146.8,124.3,146.7,125.2z
				 M146.8,125.6L146.8,125.6v0.3h0L146.8,125.6z M146.4,120.8c-0.2,0.4,0,0.8-0.2,1.1c-0.1-0.7,0.2-1.7-0.3-2.1
				c0.2-0.1,0.4-0.1,0.5,0C146.5,120.1,146.1,120.5,146.4,120.8z M146.2,125c-0.1,0.1-0.3,0.3-0.2,0.5c0.2,0.1,0.4,0.2,0.2,0.5
				c-0.1,0.2-0.5,0.2-0.7,0.2c-0.2-0.3,0-0.7,0-1.1C145.8,124.9,146,124.9,146.2,125z M145.8,124.6l0.1-0.3h0.1
				C145.9,124.4,145.9,124.6,145.8,124.6z M146.2,124.1c-0.2-0.5-0.2-1-0.2-1.5c0.1,0,0.1-0.1,0.2-0.1
				C146.2,123,146.4,123.6,146.2,124.1z M146.6,121.9L146.6,121.9c-0.2-0.1-0.1-0.2-0.1-0.4C146.7,121.6,146.6,121.7,146.6,121.9z
				 M145.1,115.5c0.3,0.2,0.2,0.6,0.2,0.9h-0.1L145.1,115.5z M149.8,123.5c-0.1,0.1-0.1,0.1-0.2,0.1c-0.1-0.5-0.6-0.5-0.9-0.8
				c-0.5-0.1-1.1-0.2-1.5,0.3c-0.1,0.3,0.2,0.6,0.3,0.9c-0.1,0.3,0,0.6,0.2,0.9c-0.1,0.1-0.5,0.1-0.6,0.1c-0.1-0.8,0-1.5,0-2.3
				c0.6-0.4,1.5-0.3,2.2-0.1l0.7,0C150,122.8,149.9,123.2,149.8,123.5z M149.9,124.3v0.2c-0.2,0.2-0.5,0-0.7,0.1
				C149.2,124,149.7,124.2,149.9,124.3z M148.8,125.5c0,0-0.4,0.2-0.4-0.1L148.8,125.5z M147,121.7c-0.1-0.4,0.3-0.8-0.1-1.1
				l0.1-0.3c0.3,0.5,0.5,1.1,0.6,1.7C147.3,122.1,146.8,122.1,147,121.7z M149.4,131.2c-0.1,0-0.1,0.2-0.3,0.1
				C149.1,131.2,149.3,131.1,149.4,131.2z M149.1,130.6c-0.1,0.2-0.4,0.3-0.6,0.4C148.5,130.8,148.8,130.7,149.1,130.6z M145,129.4
				c0.2,0.2,0.4,0.3,0.6,0.3c-0.1,0.2-0.2,0.3-0.4,0.3c-0.1,0-0.2,0-0.2-0.1C145.4,129.6,144.6,129.7,145,129.4z M144.4,130.3
				c-0.1,0.2-0.4,0.3-0.6,0.4l-0.3,0C143.7,130.5,144.2,130.6,144.4,130.3z M141.3,130.5c0.2-0.2,0.6-0.3,0.9-0.4
				c0.1,0.4,0.5-0.2,0.6,0.2c0.1-0.1,0.2,0,0.3,0c-0.2,0.2-0.5,0.3-0.8,0.3l-0.1-0.2l-0.3,0.1l0.2-0.2
				C141.7,130.1,141.7,130.9,141.3,130.5z M142.9,130.5c0.2,0.2,0.5,0,0.6,0c-0.2,0.1-0.3,0.3-0.6,0.2
				C142.9,130.7,142.8,130.6,142.9,130.5z M140.9,130.2c-0.1,0.2-0.4,0.2-0.5,0.2C140.4,130.2,140.8,130.2,140.9,130.2z M140,130.3
				c-0.2-0.3,0.3-0.2,0.5-0.4C140.6,130.3,140.2,130.1,140,130.3z M139.4,130c-0.1,0.1-0.2,0.3-0.5,0.2c0-0.2-0.2-0.2-0.3-0.2
				c0.2-0.2,0.5-0.1,0.6-0.2c0,0.1-0.3,0-0.2,0.2L139.4,130z M137.4,129.9c0.1,0,0.3-0.2,0.3,0c0,0.1-0.1,0.2-0.2,0.2
				C137.3,130,137.4,129.9,137.4,129.9z M136.9,129.9c0.1-0.2,0.4-0.2,0.6-0.2C137.4,129.9,137.1,129.8,136.9,129.9z M135.8,129.4
				c0,0.1-0.3,0.2-0.4,0.2C135.4,129.5,135.6,129.3,135.8,129.4z M135.4,129.3c-0.1,0.1-0.4,0.2-0.6,0.2
				C134.9,129.3,135.2,129.2,135.4,129.3z M134.4,129.2c-0.1,0.1-0.4,0.1-0.5,0.1C134,129.1,134.4,128.8,134.4,129.2z M132.2,128.9
				c-0.1,0.1-0.3,0-0.4,0.1c0,0,0,0-0.1,0c0,0,0,0,0.1,0C131.9,129,132.1,128.7,132.2,128.9z M129.9,127.4c-0.1,0-0.2,0.2-0.2,0
				c0-0.1,0.1-0.2,0.1-0.3c-0.1-0.2-0.3-0.1-0.4-0.2c0-0.3,0.4-0.2,0.5-0.5c-0.3-0.4,0.3-1.5-0.5-1.3c-0.5,0-0.8,0.6-1.1,0.4
				c0-1.2,1.3-0.3,1.9-0.5C130.3,126,129.8,126.5,129.9,127.4z M127.7,126.6l0.2-0.3c0.1,0.3,0.5,0.5,0.6,0.7
				c-0.2,0.1-0.5,0.1-0.5,0.4c0.3,0.3,0.2,0.6-0.2,0.8c-0.1,0-0.2,0-0.2-0.1C128,127.6,127.4,127.1,127.7,126.6z M127.4,122.1
				c-0.1,1.6,0.5,3.3-0.1,4.9c-0.1-0.2-0.4-0.4-0.6-0.4c0.2-1.9-0.2-4,0.2-5.8c-0.1-0.3,0.2-0.7-0.1-1c1.1-0.3,2.4-0.1,3.5-0.4
				l0.4,0.1c-0.1,0.3,0.4,0.5,0.1,0.8c-0.6-0.1-1-0.3-1.7-0.1c-0.4-0.1-1,0.1-1.5,0.1C127,120.8,127.8,121.4,127.4,122.1z
				 M131.1,119.3c0.4,0,0.7,0.1,1,0c0.1,0.3,0.9,0.3,0.5,0.8l-0.6,0c-0.1-0.2,0.1-0.5-0.1-0.6c-0.7,0.1,0,0.8-0.2,1.2
				c-0.1,0.4,0,0.8,0,1.1c-0.3,0.1-0.7,0-0.9,0c-0.1-0.2-0.1-0.6,0-0.8l0.1,0.1C131.2,120.5,130.8,119.9,131.1,119.3z M135.3,118
				c0,0.2-0.3,0.2-0.5,0.2c-0.5-0.1-1,0.2-1.2-0.2c-0.2,0.3-0.5,0.2-0.8,0.2c-0.1-0.1-0.1-0.2-0.1-0.3c0,0,0.1-0.1,0.1-0.1
				c0.1,0,0.2,0.1,0.3,0.2l0.1-0.3C133.9,118,134.6,117.7,135.3,118z M133.2,116.8c0-0.2,0.2-0.2,0.2-0.2
				C133.5,116.7,133.4,116.8,133.2,116.8C133.2,116.9,133.2,116.8,133.2,116.8z M134.8,117.2c0.2-0.1,0.3,0.2,0.4,0.3
				c-0.1,0.2-0.3,0.1-0.6,0.1C134.5,117.5,134.7,117.3,134.8,117.2z M134.4,125.4c-0.1,0-0.1-0.2-0.1-0.3c0.1,0,0.1,0.1,0.2,0.2
				C134.4,125.3,134.5,125.4,134.4,125.4z M134.1,122.9l0.1-0.1c0,0,0.1,0,0.1,0v0.2L134.1,122.9z M134.3,120.2
				c-0.2-0.3-0.9,0-1.1-0.3l0.3-0.2c-0.1-0.2-0.6,0-0.4-0.4c0.8-0.1,1.6-0.1,2.4-0.1c0,0.2-0.1,0.5-0.1,0.7
				C135,120.1,134.5,119.9,134.3,120.2z M133.7,124.6c-0.2,0-0.4-0.1-0.5-0.3c0.2-0.2,0.3-0.5,0.5-0.7c0.2,0.1,0.1,0.3,0.1,0.4
				C133.5,124.3,134.2,124.5,133.7,124.6z M133.9,125c0.1,0.1,0.2,0.3,0.2,0.4c-0.1,0.1-0.2,0.2-0.3,0.1
				C133.5,125.4,133.9,125.3,133.9,125z M132.7,121.5c0.1-0.1,0.1,0.1,0.1,0.1c0,0.1,0,0.1,0,0.1h-0.1L132.7,121.5z M132.7,121
				c0.1,0,0.1,0,0.1,0.1c0,0.1,0,0.1-0.1,0.2C132.7,121.3,132.7,121.1,132.7,121z M133,122.6l-0.8,0.2c-0.1-0.1,0-0.2,0-0.3
				C132.4,122.1,132.6,122.7,133,122.6z M132.7,118.9c0-0.5,0.8-0.1,1.1-0.3c0.5,0.1,0.9,0.2,1.4,0c0.1,0,0,0.1,0,0.2
				C134.4,119,133.5,118.8,132.7,118.9z M132.7,117.4c-0.1-0.1-0.1-0.2,0-0.3l0.4-0.3C133.2,117,132.8,117.2,132.7,117.4z
				 M130.7,125.2l-0.1,0.1c-0.1,0-0.1-0.2,0-0.2C130.7,125,130.7,125.2,130.7,125.2z M129.9,124L129.9,124c-0.2-0.1-0.2-0.2-0.1-0.4
				l0.1,0C130,123.6,129.9,123.9,129.9,124z M128.9,124.3h0.5c-0.2,0.1-0.6,0.3-1,0.1c0-0.4-0.2-0.7-0.1-1c0.2,0.1,0.3-0.2,0.6-0.2
				V123c-0.2-0.1-0.4,0.2-0.6,0c0.1-0.3,1-0.2,0.7,0.3c0.1,0.3-0.2,0.5,0,0.7c0.1,0,0.3-0.2,0.4,0
				C129.4,124.2,128.2,124,128.9,124.3z M128.6,122.3c0.2-0.1,0.4,0.1,0.4,0.2c-0.2,0.3-0.4,0.1-0.6,0.2
				C128.3,122.5,128.4,122.3,128.6,122.3z M129.2,123.6c0-0.1,0.1-0.2,0.2-0.1c0,0.1,0,0.2,0,0.2
				C129.2,123.8,129.2,123.7,129.2,123.6z M129.2,123.2c0-0.1-0.1-0.3,0.1-0.3c0.2,0,0.2,0.2,0.2,0.3H129.2z M129.3,122.7
				c-0.2-0.1,0-0.2,0-0.3c0.1,0,0.1,0,0.1,0.1C129.4,122.5,129.4,122.7,129.3,122.7z M127.9,121.9v-0.4l0.1,0
				C127.7,121.6,128.2,121.8,127.9,121.9z M128.3,128.6c0.3,0.3,0.6,0,0.9,0.1c-0.2,0.4-0.7,0.6-1.2,0.6l-0.1-0.1
				C128.2,129.1,128.1,128.8,128.3,128.6z M129.2,126.5c0.1,0,0.2-0.3,0.3-0.1c0.1,0.2-0.2,0.2-0.2,0.3
				C129.1,126.6,129.2,126.5,129.2,126.5z M135.5,120v-0.3c0.1,0,0.1,0.1,0.1,0.2L135.5,120L135.5,120z M135.9,123.3
				c0.2,0,0.4,0,0.6,0.1c0.1,0.3,0,0.6-0.3,0.7c-0.2-0.1-0.3,0.2-0.4-0.1C135.8,123.8,135.6,123.4,135.9,123.3z M136.2,125
				c-0.2,0.1-0.3-0.2-0.4-0.3c0.1-0.2,0.4-0.3,0.7-0.2C136.6,124.7,136.3,124.9,136.2,125z M136.5,125.6v0.1h-0.7
				c-0.1-0.2,0.1-0.3,0.3-0.3C136.2,125.5,136.5,125.2,136.5,125.6z M136.5,122.9c-0.2,0-0.5,0.1-0.7-0.2c0-0.2-0.1-0.5,0.1-0.6
				c0.2,0.2,0.4-0.1,0.6,0.1C136.5,122.4,136.5,122.6,136.5,122.9z M135.9,120.6v-0.2c0.3,0.2,0.3,0.7,0.3,1.1
				c-0.1,0.2-0.4,0.1-0.4,0.1C135.7,121.3,135.7,120.8,135.9,120.6z M136.5,120.4c-0.2-0.2-0.6-1.1-0.1-1.2
				C136.4,119.5,136.5,120,136.5,120.4z M136.3,117.7c0.1,0.1,0.1,0.2,0.1,0.4l-0.1,0.1C136.2,118.1,136.3,117.8,136.3,117.7z
				 M136.4,118.6c0,0.2-0.4,0.2-0.6,0.2c-0.1,0-0.1-0.1-0.1-0.2C135.9,118.5,136.3,118.5,136.4,118.6z M135.7,117
				c-0.2,0.1,0,0.3,0,0.5c-0.2-0.2-1-0.4-0.7-0.9c0.1-0.2,0.5,0.1,0.5-0.3c-0.3,0-0.5-0.3-0.7-0.5c0.2-0.4,0.5-0.8,1-0.9
				C135.9,115.6,135.8,116.4,135.7,117z M134.1,115.6c-0.2-0.2,0-0.5-0.1-0.7c0.3-0.2,0.7,0,1-0.2c0.1,0.1,0.3,0,0.3,0.1
				C135,115.1,134.7,115.8,134.1,115.6z M134.2,116.9l0.1-0.3c0.3,0.1,0.2,0.6,0.1,0.8c-0.3,0.2-0.6,0.1-0.9-0.1
				c0-0.1,0.1-0.1,0.1-0.2C133.8,117,134.1,117.3,134.2,116.9z M133.3,108.1c0.3,0,0.5,0.2,0.7,0.2c0,0.2-0.2,0.1-0.3,0.1
				c-0.2,0-0.5,0-0.5-0.2C133,108.1,133.2,108.2,133.3,108.1z M133.4,115.3c-0.1,0.1-0.2,0-0.3-0.1c-0.1-0.1-0.1-0.2-0.1-0.3
				C133.3,114.9,133.5,114.9,133.4,115.3z M133.4,115.8c-0.2,0.1-0.4,0.2-0.6,0.2c-0.3-0.3-0.1-0.8-0.1-1.1
				C132.9,115.2,133.1,115.6,133.4,115.8z M132,117.3c-0.3,0.4-0.7,0.5-1.2,0.6c-0.1,0-0.1-0.1-0.1-0.2c0.2-0.5,0.7-0.6,1.2-0.6
				c0-0.3-1.2-0.1-0.6-0.7l0.8,0C132.2,116.7,132.1,117.1,132,117.3z M132,118.4c-0.7-0.1-1.5,0.3-2.3,0.1c0.4-0.9,1.3-0.2,1.9-0.6
				c0.2,0,0.2,0.1,0.4,0.1C132.1,118.1,132.1,118.3,132,118.4z M131.9,115.3c-0.3-0.2-1.1,0.4-1.1-0.3v-0.2c0.4-0.2,0.7,0.5,0.9-0.1
				c0.2-0.1,0.2,0.3,0.3,0.4C132,115.2,131.9,115.3,131.9,115.3z M132.1,116.1l-0.7,0.1c0.1-0.2,0.4-0.1,0.5-0.3
				C132,115.9,132.2,115.9,132.1,116.1z M131.2,115.9l0-0.2l0.2,0C131.4,115.9,131.2,115.8,131.2,115.9z M129.7,114.8
				c0.7-0.2,0.6,0.7,1,1c0.3,0.6-0.4,0.4-0.7,0.5c-0.1,0-0.3,0-0.4,0C129.5,115.8,129.5,115.2,129.7,114.8z M131.6,118.8
				c0.2,0,0.5-0.1,0.6,0.1c-0.2,0.4-0.6,0-0.9,0.1c-2.3,0.4-4.9,0.1-7.1,0.8l-0.3-0.2l0.2-0.2c1.4-0.1,2.9-0.2,4.3-0.4
				C129.5,119,130.5,118.9,131.6,118.8z M125,127.3c0.4,0.1,0.6-0.5,0.9-0.2c-0.3,0.2-0.2,0.6-0.6,0.7c-0.5,0.2-0.6-0.4-1-0.3
				c0-0.9-0.2-2,0-3.1c-0.1-1.1-0.2-2.3,0-3.5c0.1-0.2,0.3-0.4,0.4-0.1c0.1,1.3,0,2.5,0,3.9c0.4,0.9,1.3-0.1,1.8,0.4
				c0.1,0.2,0,0.3,0,0.5c-0.3,0-0.7-0.2-0.9,0.2c-0.4,0.3-0.3,0.8-0.7,1.2C124.7,127.1,124.9,127.2,125,127.3z M125.6,128.5
				c0,0-0.1,0-0.1,0c-0.1-0.2-0.2-0.4,0-0.5C125.6,128.1,125.7,128.3,125.6,128.5z M125,128.3L125,128.3c-0.2,0.1-0.2-0.1-0.1-0.1
				C125,128.2,125,128.3,125,128.3z M125.2,122.9c0.3,0.3-0.2,0.9,0.3,1.2c0.2,0,0.5-0.1,0.5,0.2c-0.1,0.6-0.8,0.3-1.3,0.4
				c-0.1-0.4,0-0.8-0.1-1.2C124.6,123.1,125,123.2,125.2,122.9z M124.9,120.3c0.2,0,0.6-0.2,0.9,0v0.1L124.9,120.3z M125.9,119.9
				c0-0.2,0.4,0,0.5-0.2c0.1,0,0.1,0.1,0.2,0C126.5,120.2,126.1,119.8,125.9,119.9z M126.4,124c0.1,0.1,0,0.4,0,0.5
				C126.3,124.4,126.3,124.1,126.4,124z M126.3,120.3c0.2-0.1,0.3,0.1,0.3,0.3c-0.1,1.1-0.1,2.3-0.2,3.3
				C126.3,122.8,126.4,121.4,126.3,120.3z M128.7,111.9L128.7,111.9c0,0.8-0.5,1.3-0.5,2.1c-0.5-0.1-1.1-0.4-1.5,0h-0.2
				c-0.2-0.7-0.2-1.4,0-2.1C127.3,111.8,128,111.9,128.7,111.9z M127,109.4h0.1c0.1,0.2-0.1,1,0.4,0.8c0.4,0.2,0.2,0.8,0.2,1.2
				c-0.2,0.2-0.6,0-0.9,0C126.8,110.8,126.8,110,127,109.4z M129,117.9c-0.1,0.1-0.2-0.1-0.2-0.2l0.2-0.3
				C129.1,117.5,129,117.7,129,117.9z M129.1,118.5v0.2c-0.6,0-1,0.1-1.5,0.1c0.4-0.3,0.8-0.7,1.4-0.6L129.1,118.5z M128.9,115.8
				c-0.1-0.1-0.5-0.6-0.5-0.8C128.8,115.2,128.9,115.5,128.9,115.8L128.9,115.8z M128.9,114.5c-0.1,0.1-0.2,0.1-0.2,0
				c-0.1-0.1,0-0.2,0.1-0.3c0.1-0.1,0.2,0.1,0.2,0.2V114.5z M127.8,116.2l0.2-0.3c0.2,0,0.1,0.2,0.3,0.3v0.2c-0.3,0.1-0.7,0-1,0
				c0.1-0.2,0-0.7,0.4-0.7C127.9,115.8,127.5,116.1,127.8,116.2z M127.2,116c0,0.6-0.6,0.2-0.9,0.4c-0.2-0.1,0-0.3,0.1-0.5
				C126.5,115.7,127.3,115.3,127.2,116z M126.8,114.4c0-0.2,0.2-0.1,0.3-0.2c0.1,0.2-0.2,0.1-0.2,0.2
				C126.9,114.5,126.8,114.5,126.8,114.4z M126.5,115.3c0.1,0.2-0.2,0.3-0.4,0.4c0,0-0.1,0-0.1,0
				C126.1,115.5,126.3,115.4,126.5,115.3z M127,116.6c0.1,0.3-0.2,0.6-0.4,0.9c-0.2,0.1-0.4,0.5-0.6,0.1c-0.3-0.2-0.1-0.7-0.1-0.9
				C126.3,116.6,126.6,116.6,127,116.6z M127.2,117.1c0,0.1,0,0.2,0,0.3c0.3-0.3,0.2-0.9,0.7-0.9c0.2,0,0.6-0.1,0.6,0.2
				c0.1,0.5-0.6,0.5-0.6,1c-0.4,0.2-1,0.4-1.4,0.2C126.7,117.7,127,117.4,127.2,117.1z M129.4,113.6c-0.2,0.2-0.5,0.2-0.8,0.3
				c-0.1-0.5,0.3-0.8,0.3-1.3c0.2-0.3,0.1-0.9,0.5-0.8L129.4,113.6z M123.9,116.8c0.3-0.3,0.7-0.1,1-0.2c0,0.5,0,1-0.3,1.3
				c-0.1,0.2-0.4,0.2-0.6,0.3c-0.2-0.2-0.5,0.1-0.5-0.2C123.6,117.7,124.1,117.3,123.9,116.8z M123.1,118.2c-0.4,0-0.9,0.2-1.3-0.2
				c-0.6-0.2-0.2-0.9-0.1-1.3l1.8,0C123.9,117.3,123.2,117.7,123.1,118.2z M123.5,115.1c0.4-0.1,0.8-0.2,1.2,0
				c0.2,0.4,0.5,0.9,0.3,1.3c-0.4-0.1-1.3,0.5-1.2-0.4C123.7,115.6,123.5,115.3,123.5,115.1z M125.1,117.7c0.2,0,0.3,0.2,0.4,0.4
				c0,0.1-0.2,0.2-0.2,0.2l-0.4-0.1L125.1,117.7z M124.2,110.5c0.2,0.2,0.3,0.6,0.5,0.9h0.3v0.1c-0.4-0.1-0.9,0.2-1.1-0.2
				C124,111,124.1,110.7,124.2,110.5z M124.2,108.7c0.5-0.2,1-0.3,1.5-0.2c0.1,0.2-0.1,0.4-0.3,0.4
				C125,108.9,124.4,109.1,124.2,108.7z M123.2,109.9c0-0.1,0-0.2-0.1-0.3c-0.3,0-0.6,0.1-0.7,0.4c-0.3,1.5,0.1,3-0.2,4.4
				c0,0-0.1,0-0.1,0.1c-0.2-0.3,0.1-0.7-0.1-1c-0.1-1.4,0-2.6,0.2-3.9c0.2-0.3,0.5-0.5,0.9-0.6C123.1,109.3,123.5,109.6,123.2,109.9
				z M123.2,110c0,1.4,0.2,2.9-0.1,4.2h-0.1c-0.1-0.8-0.2-1.5,0-2.3C123.1,111.3,123,110.6,123.2,110z M122.8,115
				c0.3,0.2,0.6,0.7,0.7,1.1c0.1,0.2,0,0.4-0.1,0.4l-1.7,0.1c-0.2-0.1-0.2-0.4-0.2-0.6C121.8,115.5,122.1,114.8,122.8,115z
				 M121.6,113c0.1,0,0,0.1,0,0.2c-0.1,0-0.1,0.1-0.2,0.1C121.5,113.2,121.4,113,121.6,113z M120.4,115.8c0-0.1,0.1-0.2,0.1-0.3
				c0.2-0.2,0.6,0.1,0.6-0.3c0,0.1,0.1,0,0.1,0.1c-0.5,0.3-0.4,0.9-0.7,1.3C120.2,116.5,120.4,116,120.4,115.8z M120.2,118.4
				c0.2-0.2,0.6,0,0.8,0.1c0,0.2-0.2,0.5,0.1,0.6c0.2,0,0.3-0.2,0.3-0.3c0-0.2,0-0.3,0.2-0.4c0.4,0,0.8,0.4,1.2,0
				c0.4,0.3,1-0.4,1.3,0.2c0.9-0.1,1.6,0.2,2.4-0.2c0.1,0.1,0.2,0.2,0.1,0.2c-0.5,0.2-1.3,0-1.7,0.3c-0.1,0-0.1-0.2-0.2,0v0.1
				c-1.4-0.2-2.6,0.5-4,0.3c-0.2-0.1-0.4-0.1-0.5-0.3C120.1,118.9,120.2,118.7,120.2,118.4z M123.9,123.6c0,0.7-0.1,1.3-0.1,2.1
				c-0.4,0.1-0.8,0.4-1.1,0.8c0.2,0.5-0.9,0.5-0.2,1c-0.1,0.1-0.2,0.3-0.4,0.2c-0.5-0.7-0.3-1.6-0.3-2.4c0.2-0.1,0.4-0.1,0.4-0.3
				c0.4,0,0.8,0,1,0.3c0.2,0.1,0.2-0.1,0.3-0.2c-0.1-0.6,0.2-1.1-0.1-1.7l0.1,0l0-2.5c-0.1-0.1-0.1-0.2-0.1-0.3c0.1,0,0.2-0.1,0.4,0
				C123.9,121.5,123.7,122.6,123.9,123.6z M121.7,120.4c0.2-0.1,0.5-0.2,0.5,0.1c0,0.2-0.4,0.2-0.4,0.5c0.1,0.9,0.1,1.9,0,2.8
				C121.6,122.6,121.7,121.5,121.7,120.4z M121.4,125.6c0.1-0.6-0.2-1.1,0-1.7c0.2,1.2,0.1,2.4,0.2,3.6
				C121.3,127.1,121.6,126.2,121.4,125.6z M121.5,122.2l0,0.3c-0.2-0.4,0-0.9-0.2-1.3C121.8,121.3,121.3,121.8,121.5,122.2z
				 M121.5,120.5c0.1,0.1,0.1,0.3,0,0.4C121.4,120.8,121.3,120.6,121.5,120.5z M121.5,123.1L121.5,123.1l-0.1-0.4
				C121.6,122.6,121.5,122.9,121.5,123.1z M121.1,120.2c-0.1-0.1-0.1-0.2,0-0.3c0.5-0.1,1.2-0.2,1.6-0.2v0.1L121.1,120.2z
				 M120.9,121L120.9,121c0.1,0.3,0.2,0.6,0.1,0.9c0,1.5,0.2,3.2-0.1,4.6h-0.1C121.1,124.7,120.5,122.7,120.9,121z M122.7,123.7
				l0.2,0l0,0.8c-0.2,0-0.4,0.1-0.6,0c-0.1-0.7-0.2-1.8,0-2.5c0.2-0.1,0.2,0.1,0.2,0.2C122.4,122.7,122.2,123.4,122.7,123.7z
				 M121.8,124.1l-0.1-0.3C121.9,123.9,121.7,124,121.8,124.1z M121.7,124.3c0.2,0,0.1,0.1,0.1,0.2h-0.1V124.3z M120.6,120.1
				c-0.3,0.3-0.5,0.8-1,0.5c-0.6,0.1-0.1,0.7-0.2,1.1c0.2,1.3-0.4,3.1,0.1,4.5l0,0c-0.2,0-0.6,0-0.8-0.1c0.7-0.2,0.1-1,0.3-1.4
				c-0.1-1.3,0.3-2.8,0.1-4.1c-0.1-0.1-0.2-0.2-0.4-0.1c-0.4,1.5,0,3-0.4,4.5c0.1,0.4-0.1,0.8,0.2,1.1c-1-0.2-1.8-0.4-2.8-0.7
				c1-0.8,0.3-2,0.5-3.1l0-1.1l-0.2-0.1c0.3-0.2,0-0.5,0-0.7l3.4,0C119.9,120.7,120.2,120,120.6,120.1z M120.2,126.2
				c0,0.2-0.4,0.1-0.6,0c0.4-0.2,0.1-0.7,0.2-1c0.1-1.6,0.1-2.9,0.3-4.5l0.3,0c0.1,0.2-0.1,0.4-0.2,0.7
				C120.5,123.1,119.8,124.7,120.2,126.2z M115.5,121.7c0.1,1-0.1,2.2-0.1,3.2c0,0.2,0.2,0.5-0.1,0.5c-0.1-0.2-0.4-0.1-0.6-0.2
				c0.1-0.2,0.2-0.4,0.5-0.4c-0.2-1.3,0.1-2.7-0.1-4c-0.1-0.3,0.4-0.4,0.5-0.3C115.1,120.5,115.8,121.2,115.5,121.7z M114.3,121.4
				l0.1-1l0.1,0.1c0,1.6-0.3,3.1,0.1,4.7c-0.2,0-0.4,0.1-0.5-0.2C114.4,123.8,114.3,122.5,114.3,121.4z M114,119.9
				c1.3-0.2,2.6-0.2,3.8-0.2c0.6-0.1,1.4,0.2,2.1,0c0.1,0.1,0.3,0,0.3,0.2c-0.6,0.2-1.5,0.1-2.2,0.2
				C116.8,119.9,115.3,120.1,114,119.9z M113.6,118.5c0.1-0.3-0.3-0.4-0.1-0.7c0.2-0.1,0.2,0.1,0.2,0.2
				C113.7,118.1,113.9,118.5,113.6,118.5z M113.8,117.4c-0.1,0.1-0.3,0.2-0.3,0c0-0.2,0.1-0.4,0.3-0.5
				C113.9,117,113.9,117.2,113.8,117.4z M113.7,116.1c-0.3,0-0.4-0.3-0.6-0.5l0-0.2c0.4,0.2,1.3-0.4,1.3,0.4c0,0.1-0.1,0.2-0.1,0.2
				C114.1,116,113.9,115.8,113.7,116.1z M113.1,117.6c-0.1-0.2-0.1-0.5,0-0.6l0.2-0.3c0.1,0.2,0.1,0.5,0,0.8L113.1,117.6z
				 M113.1,121.2c0,0.1,0.1,0.3,0.1,0.5c-0.1,0-0.2-0.1-0.2-0.2L113.1,121.2z M114.2,116.5c0-0.1,0.1-0.2,0.2-0.1
				c0.2,0.3,0,0.6,0,0.9c0,0.1-0.2,0.1-0.2,0.1C113.7,117,114.7,116.9,114.2,116.5z M114.2,117.7c0.4,0.1,0.1,0.5,0.1,0.7
				c-0.1,0-0.2,0.1-0.3,0C114,118.2,113.9,117.9,114.2,117.7z M114.2,119.1c0,0-0.1,0-0.1,0c-0.1,0-0.1-0.2,0-0.2
				C114.2,118.9,114.2,119,114.2,119.1z M119.4,112.4c-0.1,0-0.2-0.1-0.1-0.1c-0.1-0.2,0.1-0.2,0.2-0.3
				C119.4,112.2,119.5,112.3,119.4,112.4z M119.4,113c-0.1,0.2-0.3,0.2-0.5,0.2c-0.1-0.1,0-0.2,0.1-0.3
				C119.1,112.9,119.3,112.9,119.4,113z M120,113.5c-0.3,0.3-0.7,0.1-1,0.2c0-0.1-0.1-0.1-0.1-0.2
				C119.2,113.4,119.6,113.4,120,113.5z M118.5,112.8c-0.4-0.5-0.9,0.3-1.4,0c-0.2-0.2-0.1-0.5,0-0.8c0.1-0.1,0.3-0.1,0.4,0
				c0.1,0.3,0.2,0.7,0.5,0.6l0.1-0.5c0.2,0,0.7,0,0.8,0.3C118.9,112.5,118.7,112.7,118.5,112.8z M116,115.5c0,0.5-0.6,0-0.8,0.3
				c-0.3,0.1-0.3-0.2-0.4-0.4l0.1-0.1C115.2,115.5,115.6,115.5,116,115.5z M115.5,114.4c-0.1-0.2,0.1-0.4,0.3-0.4
				c0.7,0.1,1.4,0,2.1-0.1l0.1,0.2c0.1,0.2-0.3,0.2-0.4,0.3C116.9,114.4,116.1,114.6,115.5,114.4z M115.9,117.2
				c-0.5-0.1-0.1-0.5-0.2-0.9c0-0.3,0.4-0.2,0.4,0.1C116.1,116.6,116.3,117.1,115.9,117.2z M115.7,119.1c-0.1-0.1,0-0.2,0-0.3
				c0.1,0,0.2,0.1,0.2,0.2C115.9,119,115.8,119.1,115.7,119.1z M115.9,119.3c0,0.1-0.1,0.1-0.2,0.1h-0.1c0-0.1,0-0.2,0.1-0.2
				C115.8,119.2,115.8,119.2,115.9,119.3z M115.7,118.4h-0.1c0-0.3-0.1-0.8,0.2-0.9c0.4,0.1,0.1,0.5,0.2,0.8
				C116,118.3,115.9,118.4,115.7,118.4z M115,116.3c0.1-0.1,0.2-0.2,0.4-0.2c0.1,0.3,0.1,0.7,0,1.1c0,0.1-0.2,0.1-0.3,0.1
				c-0.1-0.1,0-0.2-0.1-0.3c-0.2,0.1-0.1,0.4-0.4,0.3C114.5,116.9,114.9,116.7,115,116.3z M115.4,118.1c-0.1,0.1,0,0.3-0.2,0.3
				c-0.2-0.1-0.2-0.2-0.2-0.4c0-0.2,0.1-0.5,0.3-0.5C115.5,117.7,115.4,117.9,115.4,118.1z M115.2,118.8L115.2,118.8l0.1,0.5h-0.2
				C115.1,119.1,115,118.9,115.2,118.8z M114.6,117.7c0.1,0,0.2,0,0.2,0.1c0,0.2,0,0.6-0.2,0.7C114.4,118.3,114.6,117.9,114.6,117.7
				z M118.1,116.7c-0.2,0.1-0.3,0.2-0.5,0.2c-0.1-0.4,0.1-0.9,0.3-1.2C118.5,115.7,117.9,116.3,118.1,116.7z M117.8,118.3
				c-0.5,0.1-0.2-0.6-0.3-0.8c0-0.3,0.3-0.2,0.5-0.3c0.2,0.2,0.1,0.7,0.1,1C118.1,118.3,117.9,118.2,117.8,118.3z M117.8,119.2
				c-0.3,0.2-0.2-0.3-0.3-0.4c-0.1-0.3,0.2-0.4,0.4-0.3C118.1,118.8,118,119.1,117.8,119.2z M117.5,115.6c-0.3,0-0.8-0.2-1.1,0.1
				c0,0-0.1-0.1-0.1-0.1c0.2-0.2,0.6-0.1,0.8-0.2c0.2,0.1,0.4-0.2,0.5,0C117.7,115.5,117.6,115.5,117.5,115.6z M117.2,119.2
				c-0.1,0.1-0.3,0-0.3-0.1c0.1-0.2,0-0.4,0.2-0.5C117.3,118.7,117.2,119,117.2,119.2z M117.2,118.3c-0.1,0.1-0.2,0.1-0.3,0.1
				c-0.2-0.3,0-0.7,0-1c0-0.1,0.2-0.2,0.3-0.1C117.3,117.6,117.2,118,117.2,118.3z M116.8,117c-0.1-0.4,0.1-0.8,0.2-1.1
				c0.6,0,0.2,0.7,0.2,1C117.2,117,117,117,116.8,117z M116.5,116.2c0.1,0.2,0.2,0.6,0.1,0.8C116,117,116.6,116.6,116.5,116.2z
				 M116.5,117.3c0.2,0.2,0.2,0.8,0,1c-0.1-0.1-0.2,0-0.2,0C116.2,118,116.3,117.6,116.5,117.3z M116.5,118.8l-0.1,0.3
				c-0.2,0-0.2-0.2-0.2-0.2C116.2,118.7,116.6,118.6,116.5,118.8z M118.9,116.8l-0.3,0c-0.1-0.2-0.1-0.5,0-0.8
				c0.2-0.2,0.3-0.1,0.5-0.1C119,116.2,119.1,116.6,118.9,116.8z M118.5,117.3c0.1-0.1,0.2-0.2,0.4-0.1c0,0.4,0.1,0.8-0.2,1.1
				C118.3,118.2,118.5,117.6,118.5,117.3z M118.7,119.3c-0.4,0-0.5-0.4-0.3-0.8C119,118,118.7,119.1,118.7,119.3z M119.4,117.1
				c0.1-0.1,0.3-0.2,0.5-0.1c-0.1,0.3,0.2,1.1-0.3,1.2c-0.1-0.1-0.3,0-0.3-0.1C119.1,117.7,119.3,117.4,119.4,117.1z M119.3,116.6
				c0.1-0.3-0.1-0.8,0.2-1c0.1,0.3,0.4,0.6,0.3,1.1C119.6,116.7,119.3,116.9,119.3,116.6z M119.3,118.4c0.2-0.2,0.5-0.1,0.6-0.1
				c-0.1,0.3,0,0.7,0,1c-0.2,0.1-0.4,0.1-0.6,0.1C118.9,119.2,119.2,118.8,119.3,118.4z M120.1,115c-0.7-0.1-1.6,0.3-2.3,0.1
				c-0.6,0-1.2,0.3-1.7,0.2c0.2-0.1,0.2-0.4,0.1-0.5c0.8-0.1,1.6-0.3,2.3,0c0.2-0.3,0.4,0,0.7-0.1c0.3,0,0.8,0.1,0.9-0.2
				c-0.3-0.3-1.5,0.3-1.1-0.5c0.4,0,0.9-0.1,1.2,0.1L120.1,115z M120,112.6c-0.2,0.1-0.2-0.1-0.2-0.2c0-0.1,0-0.3,0.2-0.4
				C120.1,112.1,120,112.4,120,112.6z M119.4,110.7c-0.2,0-0.1-0.3-0.3-0.4c-0.1-0.3,0.4-0.6,0.1-0.9c-0.1-0.2-0.5-0.3-0.3-0.5
				c0.9-0.2,0.3,0.8,0.8,1C119.5,110.2,119.6,110.4,119.4,110.7z M118.4,110.8c0,0.1-0.2,0.1-0.2,0.1v-0.1
				C118.2,110.9,118.3,110.8,118.4,110.8z M118.8,111.6c-0.5,0.1-1,0.2-1.5,0.1l0-0.1L118.8,111.6z M116.3,110.6
				c0.1-0.3,0.4,0,0.5-0.2c0.2,0.1,0.4,0.3,0.6,0.5C117,111,116.8,110.4,116.3,110.6z M116.6,111.7c0.1,0.3-0.1,0.6-0.1,0.9h-0.1
				c-0.1-0.4-0.1-0.9,0.1-1.2C116.8,111.5,116.6,111.7,116.6,111.7z M116.7,113.1c-0.1,0-0.1,0.1-0.2,0l0-0.2
				C116.5,113.1,116.7,113,116.7,113.1z M117.9,113.5l0,0.2c-0.8,0-1.7,0.3-2.4,0.1c0-0.1-0.1-0.3,0.1-0.3
				C116.4,113.6,117.1,113.4,117.9,113.5z M115.3,109.8v0.2h-0.3C115,109.7,115.2,109.8,115.3,109.8z M115.2,109.3
				c0.1,0,0.1,0,0.2,0c0,0.1-0.1,0.1-0.1,0.2C115.1,109.5,115.1,109.3,115.2,109.3z M116.1,111.5c-0.2,0.2-0.6,0.2-0.9,0l0,0
				C115.4,111.4,115.8,111.4,116.1,111.5z M115.2,114c-0.1-0.2-0.1-0.4,0-0.6C115.3,113.6,115.3,113.8,115.2,114z M115.8,114.8
				c-0.8,0.5-1.9,0.2-2.9,0.3c0.6-0.2,1.4-0.1,2.1-0.1C115.2,115,115.5,114.7,115.8,114.8z M114.7,114.6c-0.7,0-1.5,0.1-2.2,0.2
				l0.1,0.3c-0.1,0.1-0.4,0-0.5,0.1c-0.2-0.2,0.1-0.5,0.1-0.8c0.8-0.2,1.6-0.2,2.5-0.2l0.1,0.2L114.7,114.6z M113,116v0.1
				c-0.2,0-0.4-0.3-0.5-0.5C112.8,115.6,112.9,115.8,113,116z M113.3,119.2c-0.1,0-0.2,0-0.2-0.1c0-0.2,0.3-0.2,0.5-0.2
				C113.7,119.1,113.4,119.1,113.3,119.2z M113.7,125c0.2-0.1,0.2,0.2,0.3,0.2c0.6,0.2,1.2,0.1,1.8,0.5c1,0,1.7,0.8,2.7,0.7l2.6,0.5
				c0,0.2,0,0.3,0,0.5c-1.2-0.1-2.3-0.8-3.6-0.9c-1-0.3-2.1-0.5-3.1-1c-0.4,0.1-0.5-0.2-0.8-0.2C113.6,125.2,113.6,125,113.7,125z
				 M113.9,126.2c0.8-0.4,1.6,0.3,2.4,0.4c0.1,0.2,0.3,0,0.4,0.2c0.3,0.2,0.7,0.2,1,0.2c1.6,0.3,2.9,0.7,4.4,1.3
				c1.8,0.3,3.7,0.9,5.6,1.3c0.2-0.1,0.2,0.2,0.4,0.2c0.6-0.1,1.3-0.2,1.6-0.8c0.2-0.1,0.3,0.2,0.5,0.2c1.1,0.2,2.4,0.3,3.5,0.5
				c1.3,0.5,2.9,0.7,4.4,0.8c0.6,0.1,1.2,0.2,1.8,0.3c0.4,0.1,1,0.1,1.4,0.1c0.9,0.1,1.9,0.5,2.9,0.4c0.3,0,0.5,0.2,0.8,0.3
				c0.5-0.4,1.1,0.3,1.7-0.2c0.9,0.1,2,0.2,2.9,0.3c0.2,1.3,0.3,2.5,0.3,3.8c0.1,1-0.1,2,0.1,3c-0.8,0.1-1.6-0.2-2.5-0.2
				c-1.5-0.1-3.1-0.6-4.7-0.9c-0.9-0.1-1.7-0.5-2.6-0.5c-1.9,0.2-3.4-0.6-5.2-0.8c-0.6-0.5-1.3,0-1.9-0.5c-1.2-0.2-2.3-0.6-3.3-1
				c-0.9-0.1-1.7-0.6-2.4-1c-0.6-0.1-1.3-0.2-1.8-0.6c-0.7-0.1-1.2-0.5-1.8-0.7c-0.6,0-1.1-0.4-1.7-0.5c-0.1-0.2-0.5-0.1-0.7-0.2
				c-0.7-0.4-1.8-0.4-2.5-1c-0.3,0-0.5-0.3-0.8-0.2c-0.7-0.6-1.5-0.6-2.3-1c-0.3-0.2-1-0.1-1.1-0.6c-0.4-0.3-0.8-0.4-0.8-0.9
				C113.8,127.4,114.1,126.8,113.9,126.2z M149.9,140.2c0.1,0,0.1,0,0.2,0.1c0-0.2-0.1-0.6,0.2-0.8c0.5-0.1,0.2,0.6,0.4,0.9
				c-0.1,0.2-0.2,0.2-0.3,0.2c-0.2,0-0.3-0.1-0.3-0.2c-0.2,0-0.1,0.5-0.4,0.3C149.6,140.5,149.7,140.3,149.9,140.2z M150.2,135.7
				c0.1,0.3,0.1,0.8,0.1,1.3c0.1,0.6,0.4,1.3,0,1.8c-0.3-0.3,0-0.7-0.1-1.1C150.1,137,150.3,136.4,150.2,135.7z M151.2,131.6
				c0.1-0.2,0.4-0.3,0.5-0.1C151.6,131.6,151.3,131.6,151.2,131.6z M153.7,131c0,0.3-0.4,0.3-0.5,0.4l0.1-0.2
				c-0.5-0.1-0.8,0.6-1.2,0.5l1.4-0.9l0.1,0c0,0.2-0.3,0.2-0.3,0.4C153.4,131.2,153.5,131,153.7,131z M153.2,130.8l-1.2,0.6
				C152.2,131.1,152.7,130.9,153.2,130.8L153.2,130.8z M153.8,131.5L153.8,131.5c0.2-0.2,0.6-0.7,0.9-0.6
				C154.5,131.1,154.2,131.4,153.8,131.5z M154.5,131.5c-0.1,0.2-0.4,0.3-0.6,0.3c-0.1,0-0.1-0.1,0-0.1
				C154.1,131.7,154.3,131.6,154.5,131.5z M152.6,122.4c0.1,0,0.2,0,0.2,0.2c-0.1,0.1-0.1,0-0.2,0L152.6,122.4z M152,119.4
				c0.2,0.1,0.1,0.4,0.1,0.5c-0.1,0.3-0.5,0.1-0.8,0.3c-0.1-0.3,0.5-0.1,0.2-0.5c-0.1-0.2-0.5-0.1-0.5-0.4
				C151.4,119,151.7,119.6,152,119.4z M150.8,122.2L150.8,122.2c0.2,0.1,0.1,0.2,0,0.2h-0.1L150.8,122.2z M150.3,123.8L150.3,123.8
				c0-0.3-0.2-0.6,0.1-0.7C150.7,123.3,150.4,123.6,150.3,123.8z M150.4,121.9c-0.1,0.5-0.7,0.2-1,0.2c-0.1-0.2,0.2,0,0.3-0.2
				C149.8,121.5,150.3,121.5,150.4,121.9z M139.6,98c1.3,3.1,2.9,6.1,4.2,9.2c-0.1,0.7,0.7,1,0.7,1.6c1,2,1.9,4,2.8,6.1
				c0.4,0.6,0.6,1.3,1,1.9c0.1,0.3,0.2,0.6,0.3,1c0.5,0.9,0.9,1.9,1.3,2.8c0.1,0.5-0.4,0.5-0.7,0.6c-0.4,0.1-1,0-1.1,0.5
				c0.1,0.2-0.1,0.2-0.2,0.2c-0.4,0-0.1-0.6-0.5-0.7c0.1-0.5-0.8-1.2,0-1.4c0.1-0.3,0.1-0.7-0.2-0.9c-0.6,0.3-0.7-0.5-1-0.9
				c0,0-0.1,0-0.1,0c-0.1-1.1-0.9-1.8-0.8-3c-0.3-0.4-0.8-0.9-0.8-1.6c-0.3-0.1-0.1-0.7-0.4-0.8c0-0.3-0.1-0.5-0.2-0.7l-0.1,0
				c0-0.3-0.2-0.5-0.2-0.7c0.2-0.5-0.4-0.5-0.2-0.9l-0.2-0.1l0.1-0.1c-0.1-0.2-0.1-0.6-0.4-0.7c0.1-0.5-0.2-0.8-0.4-1.2
				c-0.1-0.3-0.2-0.8-0.5-1c0.2-0.2-0.1-0.4-0.1-0.7c-0.2-0.2-0.2-0.4-0.2-0.7c-0.7-1.3-1.1-2.8-1.7-4.2c0-1.3-0.6-2.4-0.7-3.7
				L139.6,98z M139.3,98.2L139.3,98.2c-0.1,0.4,0.4,0.6,0.2,1c0.1,0.2,0.1,0.5,0,0.6c-0.2-0.2,0.1-0.7-0.4-0.8
				c-0.2-0.6-0.4-1.1-0.5-1.7h-0.1c-0.3-1.1-0.6-2.3-1.2-3.2c0-0.1,0-0.3,0.2-0.3C138.1,95.2,139.1,96.6,139.3,98.2z M138.4,94.1
				c-0.1-0.2-0.4-0.5-0.3-0.7C138.4,93.4,138.3,93.8,138.4,94.1z M136.9,86.9c0.2,1.4,0.5,2.8,0.9,4.1c0,0.6,0.3,1.2,0.3,1.9
				c-0.9,0.1-0.8-1.1-1.3-1.7L136.9,86.9L136.9,86.9z M136.2,100.3c0,0.1,0.1,0,0.1,0c0.1,0,0.1-0.2,0.1-0.2l-0.1-0.1l0.2-0.2
				c-0.2-1.4,0-2.8,0-4.1c-0.2-0.4,0-0.9,0-1.3c-0.2-2.4-0.1-5.1-0.2-7.5l0.2-3c0.2,0.2,0.1,0.6,0.1,0.9c0.2,1.2,0,2.8,0.2,4v0.6
				c0.2,10.8,0.3,21.3,0.7,32.3c-0.1,0.3-0.3,0.1-0.5,0.1c-0.2-2.5-0.1-5-0.3-7.5c0.1-0.5,0.1-1.1,0-1.6l0.2-0.3
				c-0.2-2.7-0.2-5.4-0.2-8c-0.1-1.3,0.1-2.7-0.2-3.9c-0.1,0.1,0,0.1-0.1,0.2V100.3z M135.8,77.1c0.2,0.1,0.2,0.4,0.1,0.6
				C135.8,77.6,135.8,77.2,135.8,77.1z M135.5,89.4c-0.3,0.6-0.6,1.2-0.7,1.8c0.1-0.3,0.4-0.4,0.4-0.7c0.2-0.4,0.5-0.8,0.7-1.2
				c0.1,3.9,0.2,8.4,0.2,12.2v0l0.1,0.1l0,0l0,0c-0.2,2.8,0.1,4.9,0.1,7.6l-0.1,0c-0.2-0.5-0.7-0.9-0.9-1.4
				c-0.2-0.3-0.5-0.6-0.6-0.9c-0.3-0.1,0-0.2-0.2-0.3c-0.8-1.3-1.6-2.4-2.2-3.6l-0.1,0.1c1.3,2.4,2.8,4.6,4.1,7l-0.1,0.2
				c0.2,1.3,0,2.6,0.1,3.9c-0.2,0-0.6-0.4-0.7,0.1c0,0.1-0.1,0.2-0.2,0.3c-0.3-0.2-0.8-0.1-1.1,0.1c-0.1-0.1-0.4-0.2-0.5-0.4
				c0.5-1.7-0.3-3.4,0.2-5c0.5-0.2,0.2-0.5,0.2-0.9c-0.3-0.3-0.8-0.2-1.2-0.5c-0.9-0.2-1.7-0.2-2.5-0.3l0.1-0.9h0.1
				c0-0.3,0.1-0.5,0.1-0.8c0.2-0.2,0.2-0.6,0.2-0.9c0.2-0.5,0.2-1,0.4-1.5c-0.3-0.2,0.2-0.4,0-0.6l0.2-0.5c0.2,0.1,0.2,0.5,0.4,0.6
				c0.1-0.4-0.4-0.7-0.4-1.1l0.2-0.6l-0.1-0.1l-0.2,0.2c-0.2,1.2-0.6,2.3-0.7,3.5c-0.2,0.3-0.1,0.7-0.2,1l-0.4,1.6
				c-0.3-0.4-0.9,0.2-0.9-0.5c-0.9-0.4-0.4-1.3-0.4-1.8c0.3-0.8,0.3-1.7,0.8-2.4c0.3-0.8,0.4-1.4,0.9-2.1c0.4,0,0-0.4,0.2-0.5
				c0.3-1.1,1-1.9,1.3-3c0.2-0.1,0.3-0.4,0.5-0.7l0.1,0.1l-0.3,1.6c-0.2,0.9-0.4,1.9-0.6,2.9c0,0.1,0.1,0.1,0.2,0.1
				c0.3-1,0.3-2.1,0.7-3.1c0.5-1.4,0.5-3,1.3-4.2v-0.2c0.3,0-0.1-0.2,0.2-0.3l0.3-0.7l-0.1-0.1c-0.2,0.1,0,0.5-0.3,0.5
				c0.1-1.4,0.7-2.8,0.7-4.3c0.1-0.1,0-0.4,0.2-0.4l-0.1,0c0.3-0.2,0.2-0.5,0.3-0.7c-0.2-0.2,0.1-0.3,0.2-0.4c0-0.7,0.3-1.2,0.4-1.9
				l0.1,0.1C135.4,86.7,135.5,88,135.5,89.4z M135.4,72.8L135.4,72.8c0.2,0.4,0.1,0.9,0,1.3C135.4,73.6,135.3,73.3,135.4,72.8z
				 M135.3,74.9c0-0.1,0.1,0,0.1,0c0.1,0.2,0.1,0.6,0,0.8C135.1,75.6,135.4,75.1,135.3,74.9z M135.4,76.8c0,0.3,0.2,0.8-0.1,1
				c0,0.4,0.2,0.8,0.1,1.3c-0.4-0.2-0.2-0.6-0.2-0.9c-0.1,0-0.1-0.3-0.2-0.4C135.5,77.6,135.3,77.2,135.4,76.8z M134.6,79.6
				L134.6,79.6c-0.2-0.3,0.2-0.5,0.4-0.7C135.2,79.5,135,79,134.6,79.6z M134.6,73.8c0.2,0.6-0.4,1,0,1.5l-0.1,0.1
				C134.3,74.9,134.3,74.2,134.6,73.8z M134.4,78.1c-0.1,0.2,0.1,0.6-0.2,0.7c-0.1,0-0.2-0.2-0.2-0.2
				C133.9,78.3,134.2,78.2,134.4,78.1z M130.2,99.8c0.6-0.1-0.1-0.4,0.1-0.7c0.4-1.4,0.5-3,1.1-4.3c-0.3-0.2,0.1-0.4,0-0.6
				c-0.2-0.6,0.4-1,0.2-1.5c0.4-1,0.5-1.9,0.7-2.9l-0.1,0v-0.4l0.1,0.3c0.1-0.2,0.1-0.4,0.1-0.6c0.1,0,0.1,0,0.1-0.1l-0.1-0.1
				c0.5-0.4,0.2-1.4,0.5-1.8c0.1-0.4,0-0.5,0.2-0.9c0.1-0.9,0.3-1.7,0.4-2.6c0.1-0.2,0.1-0.6,0.2-0.9c0.3-0.4,0-1.2,0.4-1.6
				c-0.2-0.9,0.9-1.1,1.3-1.8c0.1,1.5,0.1,3.1,0,4.6c0,0.2,0.2,0.5,0,0.6c-0.2-0.1-0.2,0.1-0.3,0.2c0.1,0.3-0.2,0.5-0.2,0.7
				c-0.5,3.2-1.4,6.2-1.9,9.4c-0.1,0.3-0.4,0.5-0.3,0.9c-0.7,0.9-1,2.2-1.6,3.3c-0.2,0.3-0.2,0.8-0.5,0.9c0.1,0.6-0.3,1.1-0.6,1.7
				l-0.1-0.1L130.2,99.8z M129.9,99.2c-0.3,1.6-0.6,3.3-1,4.9c-0.1,0.2-0.1,0.5-0.4,0.5c-0.1-0.7-0.1-1.6,0-2.3
				c0.1-1.5-0.6-3.3,0.6-4.4C129.3,98.3,129.7,98.8,129.9,99.2z M128.3,96.7c0.4,0.2,0.5,0.6,0.7,1c-0.1,0.3-0.4,0.5-0.6,0.8
				C128.2,97.9,128.3,97.3,128.3,96.7z M128.1,102.8c-0.1,0.1-0.2,0-0.2-0.1l0.1-0.3C128.2,102.4,128.2,102.7,128.1,102.8z
				 M128.1,103.2v0.2c-0.1,0-0.1-0.1-0.1-0.2C128,103.2,128,103.1,128.1,103.2z M128,101.7c-0.2-0.1-0.1-0.3-0.1-0.5
				C128.3,101.3,128,101.5,128,101.7z M127.9,97.6c-0.2,0,0-0.3,0-0.5C128,97.2,128,97.4,127.9,97.6z M127.8,95.7
				c0,0.1,0.2,0.1,0.1,0.2l-0.1,0.1V95.7z M127.4,105.6c0.2,0,0.2,0.1,0.2,0.2c-0.1,0.1-0.2,0.2-0.2,0.3h-0.1L127.4,105.6z
				 M128.3,107.1c0.1,0.3-0.3,0.3-0.4,0.5l-0.8,0.1C127.2,107.2,127.8,107.1,128.3,107.1z M126.8,102.5c-0.1-0.2,0.3-0.2,0.3-0.1
				v0.1H126.8z M127.3,95.3l-0.2,0.2l0-0.2C127.1,95.3,127.2,95.3,127.3,95.3z M127.2,101.5c-0.1,0-0.3,0.1-0.4-0.1
				c0-0.1-0.1-0.3,0.1-0.3C127,101.2,127.1,101.3,127.2,101.5z M125.5,94.8c0.3,0.2,1.1-0.1,0.9,0.6l0.1,0.1
				c-0.4-0.1-0.3,0.4-0.2,0.6c-0.1,0.2,0.2,0.1,0.1,0.2c-0.3,0.2,0.2,0.6-0.2,0.7c0.6-0.1,0.1,0.5,0.3,0.6c-0.2-0.1-0.3,0.1-0.3,0.2
				c0.1,0.3,0.2,0.8,0.1,1c0,0.4,0.5,0.4,0.4,0.7c-0.1,0-0.2-0.1-0.3,0c-0.2,0.3,0.4,0.4,0.1,0.7c0.4,0.8-0.7,1.2-0.9,1.9
				c0,0.1,0,0.2,0.1,0.2l0.8-0.9c0.6,0.4-0.5,1.4,0.5,1.5c0.1,0.1,0,0.3,0.1,0.5c-0.2,0-0.3,0.1-0.3,0.2c0.1,0.2-0.1,0.5-0.2,0.7
				c0.2,0.3-0.1,0.7,0.3,0.9c0.2,0,0-0.3,0.2-0.3c0.1,0.2,0,0.4-0.1,0.6l-0.2,0.2l0.2,0.2c-0.1,0.1-0.2,0.1-0.2,0.2
				c0,0.2,0.2,0.4,0.2,0.6c-0.3-0.1-0.4,0.3-0.6,0.4c-0.4-0.3-0.9-0.8-1.3-1.1c-0.1,0-0.3,0.1-0.4,0c0.2-0.4-0.2-0.9,0.3-1.2
				c0.1-0.4-0.4-0.8-0.1-1.2c0.4-0.3,0.6-0.9,0.7-1.3l-0.1-0.1c-0.4,0.6-1,1-1.3,1.6c-0.3,0-0.4,0.2-0.6,0.5
				c-0.6,0.6,0.4,1.3-0.5,1.7c0-2.5-0.2-4.5-0.4-6.9c-0.1-1.4,0.9-2.6,1.4-3.9C124.6,95,125.1,95,125.5,94.8z M123.5,107.2
				c-0.1,0.1-0.3,0.3-0.4,0.3c-0.2-0.2,0.2-0.2,0.2-0.4C123.4,107.1,123.4,107.2,123.5,107.2z M122.8,95.3c0.2,0.4,0.6-0.1,0.9,0
				c-0.2,0.7-0.5,1.3-0.8,2h-0.1C122.7,96.6,122.5,96,122.8,95.3z M122,99.5L122,99.5c-0.2,0.3-0.4,0.7-0.4,1
				c-0.4,0.9-0.9,1.8-1.1,2.8c0.3-0.4,0.5-1.1,0.7-1.6c0.5-0.7,0.8-1.6,1.2-2.4h0.1c0,1.1,0.1,2.3,0.1,3.4c0.1,1.3,0.2,2.4,0.2,3.6
				c-0.5,0.5-0.2,1.1-0.4,1.7c0.2,0.3,0.3,0.1,0.6,0c0.1-0.2,0.4-0.4,0.5-0.2c0.1-0.1,0.1-0.2,0.2-0.2l0.1,0c0,0.2-0.2,0.3-0.5,0.3
				c-0.3,0.1-1,0.7-1.2,0l-0.4-0.7c-0.5-0.1-0.7-0.5-1.2-0.2c-0.5,0.1-1,0.7-1.1,1.2c-0.2,0.3-0.5-0.2-0.9,0l-0.1-0.1
				c0.2-0.9,0.7-1.7,1-2.6c0.4-0.4,0.3-0.7,0.6-1.2c-0.2-0.3,0.3-0.3,0.1-0.6c-0.8,0.7-0.7,1.8-1.3,2.6c0,0.2-0.1,0.4-0.2,0.6
				c-0.2-0.2-0.1-0.5-0.4-0.6c-0.1,0.1-0.3,0.1-0.3,0.3c0,0.2,0.2,0.1,0.3,0.2c0.1,0.3-0.5,0.1-0.4,0.5c0,0.3,0.4,0.6,0.1,0.9
				c-0.2,0-0.3,0.2-0.3,0.3l0.4,0.5c-0.3,0.2-0.6,0.6-1,0.5c0.3-0.2,0.6-0.5,0.5-0.9c-0.2-0.4,0.3-0.6,0.2-1c0.1-0.2,0-0.4-0.1-0.5
				c-0.3-0.1-0.3,0.3-0.5,0.5c0,0.2,0.1,0.7-0.2,0.9c-0.2-0.2-0.4,0.1-0.5,0.2c-0.1,0.1,0,0.2-0.1,0.2c-0.2-0.2,0.1-0.3-0.1-0.6
				c-0.2-0.2-0.4-0.2-0.6,0c0,0.1-0.2,0.2-0.2,0.3h-0.1c-0.1-0.3,0.5-0.4,0.3-0.8c-0.3-0.2-0.6,0.3-0.8,0c-0.2,0-0.3,0.3-0.5,0.2
				c-0.2-0.4,0.3-0.5,0.3-0.8c1-1.5,2.1-2.9,3-4.5c0-0.1-0.1-0.1,0-0.2l0.1,0.1c0.2-0.1,0.2-0.2,0.2-0.4h0.2c1-1.7,2.3-3.4,3.4-5.1
				l1.1-1.4l0.1,0.1C122.4,97.2,122.6,98.5,122,99.5z M114,107.4l-0.1-0.1c0.7-1.2,1.4-2.5,2.1-3.8c0.2,0,0.2-0.3,0.3-0.4
				c0-0.1,0-0.1,0.1-0.1c0,0,0,0-0.1,0v-0.1c0.2,0.1,0.2-0.2,0.3-0.3c-0.1-0.3,0.3-0.2,0.3-0.5c1.2-2,2.2-3.8,3.5-5.7l-0.1-0.2
				c0.2,0.1,0.2-0.2,0.3-0.2c0.3-0.5,0.7-1.2,1-1.6c0.1-0.4,0.3-0.7,0.6-0.9l0.1,1.9c-1,1.5-2,3-3,4.5c0,0.1,0,0.2-0.1,0.2
				c-1.3,1.7-2.4,3.7-3.6,5.3c-0.4,0.8-1.1,1.4-1.5,2.2L114,107.4l-0.1,0.2l-0.1,0L114,107.4z M113.6,111.8c0.1,0,0.1,0.1,0.1,0.1
				c0,0-0.1,0.1-0.1,0.1h-0.1L113.6,111.8z M114.7,113.5l0.1,0.1c0,0.2-0.1,0.3-0.2,0.4l-0.1-0.1c-0.8,0-1.6,0.1-2.4,0.2v-0.4
				C113,113.5,113.9,113.6,114.7,113.5z M112.2,113.3L112.2,113.3c0.1-0.1,0.2,0,0.2-0.1C112.6,113.3,112.4,113.3,112.2,113.3
				L112.2,113.3z M113,112.9h-0.2c0.1-0.1,0.1-0.5,0.3-0.5C113.1,112.5,113.3,112.9,113,112.9z M113.4,111.4c-0.2,0.1-0.6,0-0.7,0
				C112.9,111.4,113.2,111.3,113.4,111.4z M113.2,106.1l-0.3,0.3c-0.1-0.2,0.2-0.4,0.2-0.6C113.2,105.8,113.2,106,113.2,106.1z
				 M113.1,105.1l-0.1,0.1l0.1-0.5C113.1,104.8,113.2,105,113.1,105.1z M113.1,104.1c0,0.2,0,0.3-0.2,0.4c0,0,0,0.1-0.1,0
				C112.8,104.4,112.9,104.1,113.1,104.1z M112.9,107.2c0.1,0.2-0.1,0.3-0.2,0.5C112.6,107.5,112.8,107.3,112.9,107.2z M113.1,110.9
				c-0.3-0.1-0.5,0.2-0.8,0C112.4,110.6,112.8,110.8,113.1,110.9z M112.3,107.2c0.1,0,0.1,0,0.1,0.1c0,0.1,0,0.1-0.1,0.2h-0.1V107.2
				z M112.6,107.8c0,0.2-0.4,0.6,0,0.8c-0.1,0.1-0.2,0.3-0.4,0.2C112,108.4,112.6,108.1,112.6,107.8z M112.1,107.8l-0.2,0.2
				c0.1-0.2-0.3-0.4,0-0.5C112,107.5,112.3,107.7,112.1,107.8z M109.2,115.1c-0.1-0.2,0.1-0.2,0.2-0.3c0.6,0,1.4,0,2-0.1l0.1,0.2
				c-0.1,0.3-0.5,0.1-0.7,0.3C110.3,115.2,109.7,115.3,109.2,115.1z M110.1,115.7c-0.1,0.1-0.1,0.2-0.3,0.2h-0.1
				c-0.1-0.2,0.2-0.2,0.2-0.2C110,115.6,110,115.6,110.1,115.7z M111.3,113.8c-0.4,0.1-1,0.1-1.4,0.1c-0.2,0.1-0.3,0.1-0.5-0.1
				l0-0.2C110.1,113.7,110.7,113.7,111.3,113.8z M111,113.3c0-0.1,0.3-0.2,0.2,0C111.2,113.3,111.1,113.4,111,113.3L111,113.3z
				 M111.4,114.2c0,0.1,0.1,0.2,0.1,0.3c-0.7-0.1-1.7,0.5-2.3-0.1l0.1-0.2L111.4,114.2z M111.4,112.9l0.2-0.3c0.1,0,0.1,0.1,0.2,0.2
				v0.2H111.4z M111.5,112c-0.2-0.1,0-0.2,0.1-0.3c0.1,0,0.2,0,0.2,0.1C111.8,111.9,111.7,112,111.5,112z M111.9,109.8
				c-0.1,0.1-0.1,0.2-0.2,0.2C111.6,109.9,111.8,109.7,111.9,109.8z M111.9,106.7v0.2C111.7,106.9,111.7,106.7,111.9,106.7z
				 M111.7,108.7L111.7,108.7c0.2,0.1,0.2,0.4,0.1,0.5C111.6,109.1,111.6,108.9,111.7,108.7z M111.2,107.4h0.1c0,0.3,0.1,0.6,0,0.8
				C111,108,111.4,107.6,111.2,107.4z M111,108.7c0.1,0.1,0.2,0.3,0.1,0.4c-0.1,0-0.1-0.1-0.2-0.1L111,108.7z M111.2,110.4
				c0.2,0.1,0.4,0.2,0.6,0.4c-0.2,0.1-0.5,0-0.7,0l-0.3,0.1C110.7,110.6,111.2,110.6,111.2,110.4z M110.9,111.4h0.2
				c-0.2,0.5,0,1.1,0,1.6c-0.2,0.1-0.3-0.1-0.3-0.3C110.7,112.2,110.9,111.8,110.9,111.4z M110.3,113.4l-0.8-0.1
				c0.1-0.2,0.4-0.1,0.5-0.2C110.1,113.2,110.4,113.2,110.3,113.4z M109.4,111.8c-0.1,0.2-0.4,0.3-0.6,0.4l-0.1-0.1
				C109.1,112.1,109.1,111.6,109.4,111.8z M108.8,112.5c0.2,0.6,0.9,0,1.3,0.4v0.1c-0.4-0.1-0.9,0.3-1.2,0.1c-0.1,0.1-0.2,0.1-0.2,0
				C108.6,112.8,108.7,112.6,108.8,112.5z M107.1,113.2l1.1,0.1c-0.1,0.2-0.3,0.1-0.5,0.1l-0.6,0L107.1,113.2z M108.6,113.8
				c0.1,0.2-0.2,0.2-0.3,0.2l-1.1,0c0-0.1,0-0.2,0-0.2C107.6,113.7,108.2,113.6,108.6,113.8z M108.4,114.4v0.1c-0.4,0-0.9,0.2-1.2,0
				c-0.1-0.4,0.3-0.2,0.4-0.3C107.9,114.3,108.3,114.2,108.4,114.4z M107.2,114.9c0.5,0,1.2-0.1,1.6,0.1c-0.4,0.5-1.3,0.2-1.9,0.3
				C106.8,115.1,107.1,115,107.2,114.9z M106.3,115c0.2,0,0.1,0.2,0.1,0.2c-0.1,0.1-0.5,0.4-0.6,0.1C105.8,115,106.1,115,106.3,115z
				 M105.3,115.1c0.1,0,0,0.1,0,0.2c-0.3,0.2-0.7,0.1-1.1,0.1c-0.4,0.1-1,0.1-1.4,0v-0.3c0.8-0.1,1.4-0.3,2.2,0H105.3z M104.9,113.3
				c0,0.1-0.1,0.2-0.2,0.2c-0.3,0-0.5,0-0.9,0c-0.2,0.1-0.3,0.1-0.5,0C103.7,113.2,104.4,113.2,104.9,113.3z M103,113.8
				c0.6,0.2,1.1-0.2,1.7,0.1c0.1,0.2-0.1,0.2-0.2,0.3c-0.5-0.2-0.9-0.2-1.5-0.2C103,113.9,102.9,113.9,103,113.8z M103.5,114.2
				c-0.1,0.2-0.4,0.1-0.6,0.1C103,114.3,103.3,114.2,103.5,114.2z M102.7,114.6c0.7-0.1,1.4,0,2.1-0.2l0.1,0.2v0.2
				c-0.8,0.1-1.3,0.2-2.1,0.2C102.7,114.9,102.5,114.7,102.7,114.6z M101.3,116.5c0.2,0.8,0.6,1.6,0.6,2.5c-0.2,0-0.3-0.2-0.3-0.4
				c0.2-0.2-0.1-0.4-0.2-0.5c-0.4-0.1-0.4,0.3-0.5,0.5C101,117.9,100.9,117,101.3,116.5z M100.9,118.8c0.2,0.1,0.1,0.3,0,0.5
				C100.8,119.2,100.8,118.9,100.9,118.8z M100.9,119.4c0.5-0.2,0.3,0.9,0.7,0.2c0.3,0,0.2-0.5,0.4-0.5c-0.1,0.2,0,0.6,0.1,1
				c0.1,0.9,0.3,1.7,0.2,2.6c-0.4-0.2,0-1-0.3-1.4c0.3-0.9-0.9-0.6-0.9-1.2l-0.2,0.1C100.7,120,100.8,119.7,100.9,119.4z
				 M101.7,126.6c0-0.1-0.3-0.2-0.1-0.3c0.1,0,0.2,0.1,0.3,0.2C101.9,126.6,101.8,126.6,101.7,126.6z M102.4,126.5l-1.2-1.1l0-0.4
				l1.3,1.2C102.6,126.4,102.6,126.4,102.4,126.5z M101,124.3c0-0.7-0.4-1.5-0.1-2.1c0.6,0.1,0.9,0.9,1.5,0.9c0,0.8,0.3,1.5,0.2,2.3
				C102,125,101.4,124.7,101,124.3z M102.9,123.5c-0.2-0.9,0.1-1.9-0.2-2.7c0-0.7-0.1-1.4-0.2-2.1c-0.1-0.2-0.1-0.4-0.2-0.6
				c0-0.4-0.1-1-0.4-1.3c0.2-0.3-0.2-0.5-0.1-0.8c0.8,0.3,1.6-0.2,2.3,0c0.2-0.2,0.5-0.1,0.8-0.1c-0.1,0.3,0.2,0.4,0.4,0.6
				c0.2-0.5,0.9-0.1,1.2-0.5c0.2-0.1,0.1,0.2,0.3,0.2c0.3-0.1,0.7-0.3,1-0.1c1.2,0.1,2.2-0.5,3.4-0.2c0.1-0.1,0-0.1,0-0.2
				c-0.2-0.1-0.5-0.1-0.7-0.1c0.1-0.2,0.5-0.1,0.6-0.1c0.4-0.1,0.9-0.1,1.2-0.2v0.1c-0.1,0-0.2-0.1-0.2,0.1c0.1,0.4,0.8,0.6,0.4,1.1
				c0.2,0.2,0.2,0.5,0.2,0.8l-0.1,0.1c-1-0.2-2,0.2-2.9,0.1c-1.4,0.2-2.8,0-4.3,0.1c-0.3-0.1-0.5,0.1-0.9,0.1
				c-0.4,0.3,0,0.9-0.2,1.3c-0.2,0.1-0.8-0.2-0.8,0.3l-0.1,0.2c0.3,0.1,0.7,0.4,1.1,0.1c0.2,1.4,0.1,2.9,0.3,4.2
				c-0.2,0.1,0.1,0.3-0.2,0.3C104.1,123.8,103.4,124,102.9,123.5z M104.4,119.5L104.4,119.5l-0.5,0.1
				C104,119.4,104.3,119.4,104.4,119.5z M103.2,126.7c0,0.1-0.1,0.1-0.1,0l0-0.4C103.3,126.3,103.1,126.6,103.2,126.7z M103.1,127.4
				c-0.1-0.1-0.1-0.2,0-0.2c0.1,0,0.2,0,0.1,0.1C103.2,127.3,103.2,127.4,103.1,127.4z M103.5,126.5c-0.2-0.6-0.3-1.3-0.1-1.8
				c0.2-0.2,0.4,0.2,0.7,0.2c0.3-0.1,0.9,0.2,0.5,0.5c0.4,0.2,0.1,0.7,0.2,1.1c-0.1,0.2-0.4,0.4-0.1,0.6c0,0.1,0,0.2-0.1,0.2
				C104.2,127,103.5,127.1,103.5,126.5z M105.7,128.9v-0.1l0.2,0.1C105.9,128.9,105.7,128.8,105.7,128.9z M111.5,129.5
				c-1-0.3-2.4,0-3.3-0.7c-0.5,0.2-1,0-1.6-0.1c-0.7-0.3-1.6-0.3-2.1-0.9c1.5,0.3,3,0.6,4.6,0.7c0.2,0.1,0.2,0.6,0.5,0.5l0.2-0.3
				c0.5,0.1,1.1,0.2,1.6,0.1c0.1,0.2,0.3,0.2,0.3,0.3C111.8,129.2,111.7,129.4,111.5,129.5z M112.2,127.8c0.1-0.2,0.4-0.1,0.6-0.2
				l0.4,0.2c0.2-0.2,0.2-0.5,0.2-0.8c0.1,0,0.1,0.1,0.1,0.2c0,0.4-0.3,0.8-0.1,1.2c-0.4,0.1-0.9,0.4-1.2,0.1c0-0.2,0.2-0.2,0.4-0.2
				C112.3,128.2,112.2,128,112.2,127.8z M113.3,130.9l-0.1-0.2c0.1-0.1,0.2-0.1,0.3-0.1C113.6,130.8,113.4,130.9,113.3,130.9z
				 M112.3,129.4c0.1-0.2,0-0.4,0.2-0.5c0.2,0.1,0.6-0.2,0.8,0.1c0.4-0.3,0.6,0.2,1,0c0.1,0.1,0,0.2,0.1,0.2
				C113.5,129.4,112.9,129.6,112.3,129.4z M142.4,144.7c0.2,0.1,0.4,0,0.5,0.2C142.7,144.8,142.4,145,142.4,144.7z M146.3,146
				c-1-0.2-2-0.6-2.8-1c0.8,0.1,1.3,0.6,2,0.5C145.8,145.6,146.1,145.7,146.3,146L146.3,146z M151.7,148.3c-0.8-0.3-1.4-0.9-2.2-1.1
				c1,0.3,1.8,0.9,2.9,1c0.1,0.2,0.3,0.1,0.4,0.3C152.5,148.4,152,148.2,151.7,148.3z M155.1,149.3c-0.2-0.1-0.6-0.1-0.7-0.4
				C154.7,149.1,154.9,149.2,155.1,149.3L155.1,149.3z M164.9,147L164.9,147l0-0.2C165,146.8,165,147,164.9,147z M164.6,145.7
				c-0.2,0.7-0.1,1.4-0.3,2.1c-0.2,1.3-0.3,2.6-0.3,4l-0.1,0.1c-0.8-0.7-2-1-2.8-1.8c-1.3-0.6-2.2-1.5-3.5-2.1
				c-1.6-0.7-3.3-1.1-4.8-1.8c-1.9-0.1-3.4-1.3-5.3-1.2c-0.6-0.4-1.4-0.3-2.2-0.5c-0.1,0.2-0.2-0.1-0.4,0c-0.9-0.2-1.5-0.1-2.4-0.5
				c-0.5,0.1-0.9-0.3-1.3-0.2c-0.4-0.1-0.7-0.4-1.1-0.4c-0.3-0.2-0.7-0.3-1.1-0.5c-0.8-0.4-1.7-0.2-2.3-0.8c-1,0.1-1.7-0.9-2.6-1
				c-0.3-0.2-0.8-0.2-1.1-0.4c-0.2-0.2-0.7-0.3-1-0.5c-0.6-0.2-1.4-0.2-2.2-0.5c-0.8,0.1-1.1-0.7-1.9-0.9v-0.1
				c-1.1-0.8-2.7-0.5-3.7-1.4c-0.4-0.5-1-0.5-1.5-0.9c-0.3-0.2-0.7-0.2-1-0.5c-0.4,0.1-0.5-0.4-0.9-0.3c-0.3-0.1-0.5-0.6-0.8-0.4
				c-0.2-0.4-0.9-0.2-1.1-0.7c-0.4,0-0.5-0.4-0.8-0.6c-1.3-0.9-3.2-1.4-4.3-2.6c-0.2-0.5,0.1-0.6,0.2-1c-0.1-0.1-0.2,0-0.3-0.1
				c0.3-0.1,0.9,0,0.9-0.5c1,0.4,2,1.1,3.2,1.3c0.6,0.5,1.4,0.3,2,0.8c0.8,0.2,1.5,0.6,2.4,0.8c0.6,0.4,1.4,0.2,2,0.8
				c1.3,0.6,2.8,1.2,4.2,1.6c0.9,0.3,1.7,0.5,2.5,0.9c0.9,0,1.7,0.6,2.5,0.6c0.5-0.2,0.9,0.3,1.4,0.2c0.3,0.2,0.9,0.3,1.3,0.4
				c0.7,0.1,1.4,0.4,2.2,0.4c0.5,0.2,1,0.1,1.6,0.3c0.5,0.5,1-0.2,1.5,0.3c0.5-0.1,1,0.1,1.5,0.2c0.8,0.1,1.5,0.5,2.3,0.5v0
				c0.1-0.2,0.1,0,0.3,0.1c0.4,0,0.9,0,1.3,0.2c0.9,0,1.7,0,2.5,0.4c0.1,0.3-0.3,0.5-0.3,0.7c-0.3,0.5-0.5,1.2-0.6,1.7l-0.1,0.2
				c-0.1,1.1,0.1,2.6,1.2,3.1c0.2,0.1,0.6,0.3,0.8,0c0.3-0.7-0.5-0.9-0.6-1.5c-0.1-0.1-0.4-0.2-0.5-0.2c-0.2-0.4-0.1-1,0-1.4
				c0.3-0.1,0.6-0.3,0.9-0.2c0,0.1,0.1,0.2,0.2,0.2c0.3,0,0.3-0.4,0.6-0.5c1.4-0.3,2.9-0.7,4.4-0.8c0.5-0.4,1.1-0.2,1.7-0.5
				c0.5-0.1,1.4-0.3,1.5,0.5c0.3,0.9,0.9,1.6,1.3,2.5c0.2,0.2,0.4,0.4,0.4,0.7c0.3,0.5,0.8,1.1,0.9,1.8c-0.5,0.4-1.1,0.6-1.7,0.7
				c-0.3,0.1-0.6,0.5-0.3,0.8c0.3,0.3,0.4,0.6,0.9,0.6c0.3,0,0.3-0.3,0.4-0.5v-0.4c0.5-0.5,1.5-0.5,1.4-1.4
				c-0.5-0.8-0.8-1.7-1.4-2.5c0-0.2-0.4-0.3-0.2-0.6c-0.7-0.6-0.6-1.5-1.3-2.1c0.2-0.3,0.7-0.1,1-0.2c0.5,0.1,1.1,0.2,1.7,0.2
				c1,0.4,2,0.1,3.1,0.2C165,142.2,164.7,143.8,164.6,145.7z M160.9,136.5c0,0-0.1,0.1-0.1,0.1C160.8,136.6,160.8,136.6,160.9,136.5
				c0.1-0.1,0.3-0.3,0.5-0.2C161.3,136.6,161.1,136.5,160.9,136.5z M161.5,137.5c0.1,0.3-0.2,0.5-0.4,0.6c-0.4-0.1,0.1-0.4,0.1-0.6
				C161.4,137.6,161.4,137.4,161.5,137.5z M161,139.7c-0.2,0.1-0.4,0-0.6,0C160.4,139.5,160.7,139.6,161,139.7z M165.1,139.9
				c-0.4,0.2-1,0-1.5,0.1c-0.5-0.2-1.1,0.1-1.6-0.2c0.2-0.2,0.6-0.6,0.2-0.9l-0.6-0.6c0.2-0.5,0.9-0.9,0.5-1.5
				c-0.3-0.3-0.4-0.6-0.7-0.8c-0.4,0-0.7,0.1-1,0.3c-0.4,0.4-0.2,1-0.2,1.5c0.6,0.3,0,0.7,0.1,1.1c-0.6,0.1-1.1,0.2-1.6,0.2
				c-0.5-0.7-1-1.4-1.3-2.2c-0.6-0.4-0.4-1.4-1.2-1.3c-0.2,0.5,0.2,0.9,0.3,1.3c0.4,0.8,0.8,1.5,1.3,2.2c-0.8,0.5-1.7,0-2.5,0
				c0.2,0.2,0.5,0.2,0.9,0.2l0.1,0.1c-0.5,0.2-1.2,0-1.7-0.1c-0.2-0.2-0.1-0.5,0-0.7c0.3-0.3,0.4-1,0.8-1c0.2-0.2,0.2-0.5,0-0.6
				c0.2-0.1,0.4-0.4,0.2-0.6c-0.5-0.2-0.3-0.6-0.4-1.1c0.1,0,0.1-0.1,0.1-0.2l-0.1-0.1l0.2-1.6c0.1,0,0,0.2,0.2,0.2
				c0-0.4-0.1-0.8,0.1-1.1c0,0,0,0.2,0.1,0.1c0-0.1-0.1-0.3,0.1-0.4c0.3-0.1,0.6,0.2,0.8,0.2c1.2,0,2.2-0.1,3.5,0
				c0.4-0.2,0.9,0,1.3,0c0.7,0,1.3,0.3,2,0.1c0.5,0.3,1.1-0.2,1.6,0.2l0.5-0.2C165.4,135,165.3,137.5,165.1,139.9z M158.3,131.4
				c0-0.2,0.2-0.2,0.3-0.2C158.7,131.3,158.5,131.4,158.3,131.4C158.4,131.4,158.4,131.4,158.3,131.4z M161.1,131.5
				c0.1-0.1,0.2-0.3,0.4-0.2C161.4,131.5,161.2,131.5,161.1,131.5z M162,131l-0.4,0c0.1-0.2,0.5-0.2,0.7-0.2
				C162.4,131,162.1,130.9,162,131z M162.8,131.4c-0.1,0.1-0.3,0.2-0.4,0.2C162.4,131.4,162.7,131.4,162.8,131.4z M162.9,131.3
				c0-0.2,0.3-0.2,0.3-0.2C163.1,131.2,163,131.3,162.9,131.3z M165.5,131.6c-0.1,0-0.2,0-0.2-0.1l0.2-0.2
				C165.6,131.4,165.6,131.5,165.5,131.6z M165.9,125.7c0.2,0.3,0,0.6-0.1,0.9c-0.1,0.8-0.1,1.6,0,2.4c-0.1,0.5-0.1,0.9-0.2,1.4
				c-1.9,0-4,0-6,0.1c-0.9,0.1-1.9-0.1-2.8,0c-0.3,0-0.7,0.1-0.9-0.2c-0.1-0.7,0.1-1.4,0.2-1.9c-0.1-0.7,0.2-1.3,0-1.9
				c0.2-1.3,0.2-2.5,0.6-3.6l0.1-0.2c1-0.2,2,0,3.1-0.1c0.8,0,1.5-0.3,2.2-0.2c1.1-0.3,2.3-0.2,3.4-0.5c0.2,0,0.3,0.2,0.5,0.1
				C165.9,123.4,166,124.5,165.9,125.7z M166.6,126.2l0-0.5l0.1,0.2L166.6,126.2z"/>
			<path class="st0" d="M104.4,116.2c-0.2,0-0.6,0.3-0.8,0.1C103.8,115.9,104.2,116.2,104.4,116.2z"/>
			<path class="st0" d="M110.1,116.4c-0.3,0.1-0.8,0.1-1.1,0C109.3,116.3,109.7,116.3,110.1,116.4z"/>
			<path class="st0" d="M111.9,116.4c-0.6,0-1.3,0-1.7,0C110.8,116.4,111.4,116.3,111.9,116.4L111.9,116.4z"/>
			<path class="st0" d="M110.4,120.4c0.2,0.2,0,0.4,0,0.6l-0.3,0.2c0,0,0-0.1-0.1-0.1c-0.2,0.3-0.5,0-0.7,0c-0.1-0.2-0.2-0.6,0-0.8
				C109.7,120,110.2,119.9,110.4,120.4z"/>
			<path class="st0" d="M118.3,120.9c-0.3,0.8-0.1,1.8-0.2,2.8l0,1.9c-0.1,0.1-0.2,0.1-0.4,0.1l-0.2-0.3c0-1.3,0.4-2.8,0.1-4.2
				c0.2-0.2,0.1-0.5,0.3-0.7C118.2,120.5,118.3,120.7,118.3,120.9z"/>
			<path class="st0" d="M117.3,120.8c0.2,0.3,0,0.7-0.1,1.1c0.1,1.3-0.2,2.2-0.2,3.4c-0.1,0.2-0.3,0-0.5-0.1l-0.2-0.3
				c0.1-1.4,0.3-2.6,0.2-4.1C116.7,120.5,117.2,120.5,117.3,120.8z"/>
			<path class="st0" d="M162.5,124c-0.1,0.2,0.2,0.4,0.4,0.5c0.1-0.1,0.2,0,0.3,0c0.1,0.1,0.3,0.4,0,0.4c-0.2,0-0.3,0.2-0.4,0.3v0.3
				l0.1-0.1l0.1,0.2l-0.2,0l-0.1,0.4c0.1,0,0.2,0,0.2-0.1l0,0c-0.1,0.1-0.2,0.2-0.4,0.2c0-0.1,0-0.1-0.1-0.2c0,0,0,0.1,0,0.1
				c-0.4,0-0.1-0.7-0.6-0.5c-0.1,0.1-0.3,0.3-0.5,0.2c-0.3-0.4,0.4-0.8,0-1.2c0.1-0.3,0.9-0.1,0.8-0.7
				C162.1,123.6,162.5,123.8,162.5,124z"/>
			<path class="st0" d="M162.3,127.8c-0.1-0.2-0.1-0.6-0.4-0.6c0,0,0-0.1,0-0.1c-1-0.4-2.1,0.1-3.2-0.1l-0.4,0.2
				c-0.5,0.4,0,0.9-0.3,1.4c0,0.2,0.2,0.5,0,0.7c-0.1,0.3,0,0.6,0.2,0.9c0.3,0.1,0.4,0.5,0.8,0.3c0.2-0.2,0.1-0.4-0.2-0.5
				c0.1-0.2,0.2-0.1,0.4-0.2c0,0.4,0.6,0.2,0.4,0.6c0.3,0.2,0.8,0,1.1-0.1c0.3,0.2,0.6,0.1,1,0.1c0.3,0,0.3-0.3,0.3-0.5h0.1
				c0-0.2-0.1-0.5,0.1-0.7l-0.1-0.1l0.1-0.2h-0.1c-0.1,0,0-0.1,0-0.2c0-0.1,0-0.1,0.1-0.1c0.1,0,0,0.1,0.1,0.2l0.1-0.5
				C162.2,128.4,162.3,128,162.3,127.8z M158.6,129.6c0-0.2,0.1-0.3-0.1-0.4c0.1-0.2,0.3-0.2,0.5-0.2c0,0.2-0.1,0.3,0.1,0.4l0.1,0.1
				C159,129.8,158.8,129.6,158.6,129.6z"/>
			<path class="st0" d="M132.2,131.1c0,0.3,0.3,0.7,0.3,1c-0.2,0-0.1,0.2-0.2,0.3c-0.3,0.1-0.6,0-0.9-0.2c-0.4-0.3-0.3-0.8-0.4-1.2
				c0.1-0.2,0.2-0.4,0.4-0.5C131.8,130.4,132,130.8,132.2,131.1z"/>
			<path class="st0" d="M116,131.2l-0.1,0.3h0.2c-0.1,0.2-0.4,0.2-0.6,0.1c-0.1-0.2-0.3-0.5,0-0.7C115.7,131,115.9,131.1,116,131.2z
				"/>
			<path class="st0" d="M138.7,132.9c0,0.3-0.1,0.7-0.5,0.8c-0.4-0.1-0.7-0.3-0.9-0.7c-0.1-0.4-0.3-0.7-0.2-1.2
				c0.2-0.2,0.5-0.3,0.7-0.4C138.4,131.6,138.4,132.3,138.7,132.9z"/>
			<path class="st0" d="M117.8,132c-0.1,0.2,0,0.5-0.3,0.6c-0.2-0.2-0.6-0.2-0.4-0.6c0-0.2,0.3-0.2,0.5-0.2
				C117.6,131.9,117.7,132,117.8,132z"/>
			<path class="st0" d="M119.8,133.3c-0.1,0.3-0.4,0.2-0.6,0.2c-0.3-0.1-0.4-0.4-0.2-0.6c0.2-0.1,0.4-0.1,0.5,0
				C119.6,133.1,119.6,133.2,119.8,133.3z"/>
			<path class="st0" d="M122.3,134c0,0.1-0.1,0.1,0,0.2l0.1-0.1c0.1,0.2,0,0.3,0,0.6c-0.1,0.2-0.4,0.2-0.6,0.2
				c-0.2-0.2-0.2-0.5-0.3-0.7C121.6,133.7,122.1,133.7,122.3,134z"/>
			<path class="st0" d="M125.6,135.7c0,0.2-0.3,0.5-0.6,0.5c-0.3,0-0.5-0.3-0.6-0.6c0-0.4,0.2-0.5,0.4-0.7
				C125.5,134.7,125.3,135.4,125.6,135.7z"/>
			<path class="st0" d="M129.4,137.2c0.1,0.3-0.2,0.4-0.3,0.6c-0.2,0.3-0.5,0-0.7-0.1c-0.1-0.3-0.6-0.6-0.3-1.1
				c0.2-0.2,0.5-0.3,0.8-0.2L129.4,137.2z"/>
			<path class="st0" d="M151.4,124.1c0,0.1,0,0.2,0.1,0.2c-0.1,0.1-0.2,0.1-0.4,0.1c-0.1-0.1-0.1-0.3,0.1-0.3
				C151.3,124.1,151.3,124.1,151.4,124.1z"/>
		</g>
		<path class="st0" d="M82.1,63.8c0.2,0.1,0.5-0.2,0.2-0.3c-0.3,0-15.3-4.5-21.3-8c-3-1.8-8.3-5.1-14-8c-0.3,0.2-0.5,0.5-0.8,0.7
			c4,2,8.6,4.5,14.2,7.5C69.2,60.5,80.8,63.3,82.1,63.8z M228.8,105.8c-5.3-7.7-15.9-12-24.6-13c-8.8-1-17.3,0.5-25.6,3.2
			c-9,2.9-23.4,9.4-33.8,11.8c-6.5,1.5-13,1.8-19-1.2c-2.8-1.4-5.2-3.4-6.4-6.4c-1.7-4.3,1.3-8.6,5-10.7c4.5-2.6,9.5-3.4,14.7-2.3
			c3,0.6,6.2,1.9,7.3,5c1.1,3.1-1.3,6.1-4,7.3c-4.4,1.9-11.6,1.5-13-2.9c0-0.4-0.4-0.5-0.3,0c0.4,2.1,3.4,4.7,8.6,4.5
			c3.7-0.2,7.8-1.7,9.2-5.4c0.6-1.6,0.4-3.3-0.5-4.7c-1.2-1.9-3-3-5.1-3.6c-3.7-1.2-7.5-1.2-11.4-0.3c-7.6,1.8-11.5,6.4-11.5,11
			c0,5.2,6.3,10.5,14.1,11.3c7.1,0.7,15.8-0.2,33.8-6.6c11.6-4.1,23.8-9.1,36.1-8.8c6.8,0.2,13.3,2.2,19.3,6
			c6.4,4.1,10.4,10.9,9.5,18.4c-0.9,7.3-6.9,13.2-12.6,15.9c-8.7,4.1-19.6,4.8-27.7,3c-5.8-1.3-9.8-3.6-12.4-6.1
			c5.9-1.8,10.6-5.4,12.1-10.2c4.8,7.4,19,7.2,23.4-0.1c3-5-2.4-12.1-11-13.6c-6.3-1.1-12.4-0.5-18.1,1.9c-4.5,1.9-8.8,5-10.4,9.8
			c-0.8,2.6-1,7.5,3.1,11.9c-9.7,2.4-17.2,0.5-22.1-2.9c-0.7-0.5-1.4-1.1-2-1.7c2.7-2.1,5-5,5.8-8.1c0.4-1.8,0.3-3.5-0.3-5.1
			c1.1,3,0.1,6.4-1.9,9.1c-1.1,1.5-2.4,2.8-3.9,3.9c-1.5-1.5-2.5-3.4-3-5.3c0-0.1-0.1-0.3-0.1-0.4c-0.1-0.6-0.1-1.7,0.7-2.8
			c0.4-0.6,0.4-0.9,0.4-0.9c0.1-0.5-0.3-1-0.9-1.1c-0.5-0.1-1,0.3-1.1,0.9c0,0-0.2,1.5,0.6,4.5c0.5,2,1.6,3.8,3.1,5.4
			c-1.2,0.8-2.4,1.5-3.7,2c-4.6,1.9-9.9,2.1-14.9,2.1c-5.1-0.1-10.3-0.3-14.9-2.1c-0.5-0.2-1-0.4-1.5-0.7c2-1.5,5.9-5.5,1.2-11.4
			c-0.1-0.1-7.5-10.2-27.6-5.3c0,0-2.9,0.8-7.3,1.5c-0.4-0.7-0.8-1.5-1.1-2.2C77.7,98.7,73,91.8,68.6,87.9c0.4-1.3,0.5-2.4,0.6-3.5
			c0.2-0.1,0.4-0.2,0.6-0.3c2.2,1.8,4.4,3.9,6.8,6.3c1.6,1.6,3.3,3.4,5.2,5.4c8.7,9.5,24.4,15.8,33.7,6.4c0.1-0.1,0-0.1-0.1-0.1
			c-6.4,6.3-19.8,6.3-32.7-7.5c-4.8-5.1-8.7-8.7-12.1-11.1c1.2-0.7,2.3-1.6,3.4-2.6c1.8,1.4,3.2,2.8,4.2,3.7
			c5,4.6,10.2,10,14.4,12.2c1.8,1,5,2.7,9.2,2.4c3.2-0.3,5.2-2,5.8-4.2c0.7-2.9-0.8-6.7-5.5-9c-3-1.5-7.2-2.2-11.8,0.5
			c-0.3,0.2-0.2,0.3,0.1,0.1c5.4-3.5,13.7,1.3,15.7,4.2c3.5,5.2-1,8.7-6.2,8.1c-3.6-0.4-7.4-3.4-9.3-5.1
			c-7.1-6.4-11.7-10.8-15.6-13.7c1.2-1.2,2.2-2.5,3.1-4c2.6-4.4,2.2-7.9,1.5-4.7c-0.6,2.7-2.1,5.7-4.9,8.5
			c-4.7-3.4-8.4-4.7-14.1-4.9c-0.1,0-0.5,0-0.5,0c-1.9,0-3.8,0.5-5.5,1.1c-4.2,1.6-7.8,4.3-10.5,8c-3.8,5.1-3.1,11.5,0.9,12.7
			c5.9,1.7,13.5-5.2,12.4-11.6c2.1,1.2,4.7,1.4,7.5,0.8c1.1,0.7,2.2,1.6,3.2,2.7c-0.6,1.6-1.4,3.4-2.7,5.3c-3.4,5-9.5,10-16.1,12.2
			c-4.4,1.4-10.4,1.3-14.6-2.1c-4.2-3.5-5.5-9.1-4.1-14.4c1.3-5,3.7-9.3,7.2-12.8c5.1-5.1,10-8.8,16.3-11.5c1.5-0.6,4.7-1.6,7.9-1.1
			c3.6,0.7,6.5,1.2,7.8,1.2c0.1,0,0.2-0.2-0.1-0.3c-7.3-0.7-15.6-3.3-26.6-6.6c-2.6-0.8-5.2-1.3-7.8-1.6c0,0-0.2,0-0.4,0
			c-7.1-0.9-13.9-0.1-19,2.3l-0.1,0.1c-2.1-1.7-3.4-4.4-2.7-7.3c0-0.1,0.1-0.3,0.1-0.4c-0.1-0.1-0.2-0.1-0.3-0.2
			c-0.3,0.8-0.4,1.6-0.4,2.5c0.2,2.2,1.3,4.2,2.9,5.6l-0.1,0.1c-1.2,0.6-2.3,1.3-3.2,2.1C4.3,67.6,5.9,76,14,79.6
			c6.2,2.8,13.3,1.5,18.1-1.5c2-1.3,4.4-4.1,4.8-5.1c0.1-0.3-0.2-0.2-0.2-0.2c-7.5,9-20.6,8.5-26.1,4c-1.3-1-2.3-2.3-2.8-3.8
			c-2-5.6,2.3-10.9,7.7-13.3l0.2-0.1c5.4,4,11.2,2.6,11.2,2.5c0.5-0.2,0.8-0.7,0.6-1.3c-0.2-0.5-0.7-0.8-1.3-0.6
			c0,0-0.3,0.1-0.8,0.6c-1.5,1.5-3,1.2-3,1.2c-4.1-0.6-6.4-2.6-6.4-2.6l0.2-0.1c5-2,11.5-2.7,17.9-1.8c0,0,0.2,0,0.4,0.1
			c1.2,0.2,2.5,0.4,3.7,0.7c4,1,12,3.1,19.1,4.7c-6.8,1.5-17,9.2-21,14c-4.1,4.8-7.5,12.4-6.5,19.1c0.8,5.4,4.9,9.4,9.9,10.6
			c8.2,2,16.3-2.5,21.9-7.9c2-2,3.8-4.2,5.2-6.7c0.6-1.2,1.1-2.3,1.5-3.3c3.2,3.4,5.9,8.2,8.8,13.8c1.4,2.6,2.9,5.6,4.5,9
			c0.1,0.3,0.3,0.6,0.4,0.9c-7.6,1.1-18.1,1.5-25.5-2.5c-0.1-0.1-0.2-0.1-0.3-0.2c-0.4-0.3-1-1.1-1.2-2.2l0,0
			c-0.2-0.6-0.3-0.8-0.3-0.8c-0.3-0.4-0.8-0.4-1.2-0.1c-0.4,0.3-0.4,0.8-0.1,1.2c0,0,0.7,0.9,2.8,2.1c0,0,0.1,0,0.1,0.1
			c0.1,0,0.2,0.1,0.2,0.1c7.3,4.1,18,3.6,25.6,2.6c7.1,13.8,21.5,23.7,34.8,15.2c0,0,0.2-0.1,0.6-0.4c0.3,0.2,0.6,0.4,1,0.5
			c3.9,2,8.1,2.7,12.4,2.9c1,0,2.2,0.1,3.5,0c1.3,0,2.5,0,3.5,0c4.3-0.2,8.5-0.9,12.4-2.9c1-0.5,2-1.2,3-1.9
			c2.2,2.2,5.1,3.8,8.2,4.8c5.4,1.6,11.4,1.4,16.5-0.1c2.1,2.1,5.2,4.1,9.8,5.6c3.8,1.2,7.6,1.7,11.5,1.8
			c10.7,0.1,23.1-2.9,29.5-12.7C232.7,119.8,233,111.9,228.8,105.8z M69.2,84.1c0-0.1,0-0.3,0-0.4c0.1,0.1,0.2,0.1,0.3,0.2
			C69.4,83.9,69.3,84,69.2,84.1z M73.8,80.8c-1,0.9-2.1,1.8-3.5,2.6c-0.4-0.3-0.8-0.5-1.2-0.8c-0.5-3.5-2.7-5.5-4.2-6.4
			c-0.6-0.3-1.2-0.6-1.8-0.8C67.3,76.3,71,78.6,73.8,80.8z M56.6,84.3c1.4-0.2,2.7-0.3,4.2,0.1c1.3,0.3,2.5,0.8,3.6,1.5
			C61.5,86.3,58.5,86,56.6,84.3z M53.7,84.8c-0.2,0.1-0.2,0.3,0,0.2c1-0.3,1.9-0.5,2.8-0.7c1.8,3.9-1,8.4-4.1,10.5
			c-2,1.3-4.1,2.3-6.6,1.9c-3.6-0.6-4.5-4.4-3.7-7.2c1.5-5,6.5-9.2,10.9-11.6c3.3-1.8,7.1-3.2,10.7-1.8c2.3,0.9,4.4,3,5,6.3
			c-5.7-3.5-9.9-3.5-14-2.1c-0.2,0.1-0.2,0.2,0,0.1c1.8-0.6,3.5-1,5.6-0.8c3.1,0.4,5.8,1.7,8.5,3.7c0,0.3,0,0.6,0,0.9
			c-1.1,0.6-2.2,1-3.4,1.3C61.4,83.3,57.6,83.4,53.7,84.8z M65.8,85.8c1-0.3,2-0.7,3-1.2c0,0.9-0.2,2-0.5,3
			C67.5,86.9,66.7,86.3,65.8,85.8z M111.6,122c-2-2.7-3-6-1.9-9.1c-0.6,1.6-0.7,3.3-0.3,5.1c1,4,4.5,7.5,7.9,9.6
			c-0.3,0.2-0.5,0.3-0.5,0.3c-9.5,5.4-22.6,2.4-32.2-15.4c4.3-0.7,7.2-1.6,7.2-1.6c20-4.9,27.3,5.3,27.3,5.3c4.4,5.8,0.6,9.6-1.3,11
			C115.4,126.1,113.3,124.3,111.6,122z M175.8,117.6c2.3-4.8,7.4-7,12.5-8.3c6.7-1.7,15.6-2.2,21.8,1.4c3.5,2,6.2,6.8,3.1,10.7
			c-2.1,2.7-5.2,3.8-8.4,4.3c-5.2,0.8-12.3-1.1-14.1-6.8c-0.3,5.4-6.3,10.2-12.3,11.8C174.2,126.3,174,121.2,175.8,117.6z
			 M76.5,64.5c0.3-0.1,0-0.3-0.1-0.3c-8.7-1.5-23.3-7.6-28.7-9.4c-3-1-6.3-1.7-9.4-2.1c-0.7,0.2-1.3,0.5-2,0.6
			c2.6,0.3,5,0.8,7.1,1.3C49,55.9,70.2,63.9,76.5,64.5z"/>
	</g>
	<g>
		<g>
			<g>
				<path class="st0" d="M9.1,25.1v1.1c0,0,1.9,0,2.3,0c0,0.6,0,17.9,0,18.5c-0.5,0-2.3,0-2.3,0v1.1h10.4c8.1,0,10.3-6.7,10.3-10.3
					c0-6.3-4.2-10.5-10.5-10.5H9.1z M19.2,25.7c6,0,9.9,3.9,9.9,9.9c0,3.3-2,9.6-9.7,9.6c0,0-4.6,0-7.4,0c0-0.1,0-19.5,0-19.6
					C14.8,25.7,19.2,25.7,19.2,25.7z"/>
				<path class="st0" d="M15.8,25.6v19.8h2.7c5.9,0,6.4-4.9,6.4-10c0-5.3-0.5-9.8-6-9.8H15.8z M18.9,26.3c5,0,5.4,3.8,5.4,9.1
					c0,4.9-0.4,9.4-5.8,9.4c0,0-1.6,0-2.1,0c0-0.6,0-17.9,0-18.5C16.9,26.3,18.9,26.3,18.9,26.3z"/>
			</g>
			<g>
				<path class="st0" d="M32,31.1c0,4.9,3.5,5.8,6.6,6.6c2.6,0.6,4.8,1.2,4.8,3.8c0,2.3-1.5,3.7-3.8,3.7c-3.9,0-5.9-4.6-6.4-7.3
					l-0.1-0.2h-1.1v8.2h1.1v-0.3c0-0.3,0.1-0.8,0.8-0.8c0.4,0,1.1,0.2,1.8,0.5c1.2,0.4,2.6,1,4.2,1c4.2,0,6.9-2.9,6.9-7.5
					c0-5-3.9-5.8-7-6.5c-2.5-0.5-4.6-1-4.6-3.2c0-2,1.4-3.4,3.5-3.4c3.5,0,5,3.3,5.6,6.1l0.1,0.2h1.1v-7.1h-1.1v0.3
					c0,0.7-0.2,0.8-0.6,0.8c-0.4,0-0.9-0.2-1.4-0.5c-0.9-0.5-1.9-1-3.7-1C34.6,24.7,32,27.2,32,31.1z M32.7,38.4
					c0.7,2.8,2.2,5.6,4.4,6.8c-0.4-0.1-0.8-0.3-1.1-0.4c-0.8-0.3-1.5-0.6-2-0.6c-0.6,0-1.1,0.3-1.3,0.8
					C32.7,44.2,32.7,39.1,32.7,38.4z M44.1,41.5c0-3.1-2.7-3.8-5.3-4.4c-3-0.8-6.2-1.5-6.2-6c0-3.3,2-5.4,5.1-5.8
					c-1.9,0.4-3.2,1.8-3.2,3.8c0,2.7,2.5,3.3,5.1,3.8c3.2,0.7,6.5,1.4,6.5,5.9c0,4-2.2,6.6-5.7,6.9C42.7,45.4,44.1,43.8,44.1,41.5z
					 M41.3,25.9c0.3,0.1,0.5,0.3,0.8,0.4c0.6,0.3,1.1,0.6,1.7,0.6c0.4,0,0.9-0.1,1.1-0.8c0,0.9,0,4.8,0,5.5
					C44.1,28.7,42.9,26.8,41.3,25.9z"/>
			</g>
		</g>
		<path class="st0" d="M28.9,38.8h3.4v-0.6h-3.3C29.1,38.4,29,38.6,28.9,38.8z M32.5,32.7c0-0.2-0.1-0.4-0.1-0.6h-3.5
			c0.1,0.2,0.1,0.4,0.2,0.6H32.5z M35,30c0.1,0.2,0.2,0.4,0.3,0.6h9c-0.1-0.2-0.1-0.4-0.2-0.6H35z M40.9,26h-4.2
			c-0.3,0.2-0.6,0.4-0.8,0.6h6C41.6,26.4,41.2,26.2,40.9,26z M43.1,28h-8c-0.1,0.2-0.1,0.4-0.1,0.6h8.5C43.3,28.4,43.2,28.2,43.1,28
			z M33,28h-6.6c0.2,0.2,0.4,0.4,0.6,0.6h5.8C32.8,28.4,32.9,28.2,33,28z M28.1,40.8h4.3v-0.6h-4C28.3,40.4,28.2,40.6,28.1,40.8z
			 M33.3,34.7c-0.1-0.2-0.3-0.4-0.4-0.6h-3.6c0,0.2,0,0.4,0.1,0.6H33.3z M32.3,30.7c0-0.2,0-0.4,0.1-0.6H28c0.1,0.2,0.2,0.4,0.3,0.6
			H32.3z M26.6,42.8h5.7v-0.6h-5.2C27,42.4,26.8,42.6,26.6,42.8z M44.5,26h-2.3c0.5,0.3,1,0.5,1.5,0.5C44.2,26.5,44.4,26.3,44.5,26z
			 M24.3,40.2h-8.1v0.6h8C24.2,40.6,24.2,40.4,24.3,40.2z M37.1,44.9h5c0.3-0.2,0.5-0.4,0.7-0.6h-6.6C36.5,44.5,36.8,44.7,37.1,44.9
			z M34.9,42.8h8.6c0.1-0.2,0.1-0.4,0.1-0.6h-9.2C34.7,42.4,34.8,42.6,34.9,42.8z M16.2,42.2v0.6h7.1c0.1-0.2,0.2-0.4,0.3-0.6H16.2z
			 M23.6,44.9h8.8v-0.6h-7.5C24.4,44.5,24,44.7,23.6,44.9z M34.1,26.6c0.2-0.2,0.5-0.4,0.8-0.6h-12c0.5,0.2,1,0.4,1.5,0.6H34.1z
			 M27.2,15.9c-14.3,0-25.9,8.8-25.9,19.6c0,10.8,11.6,19.6,25.9,19.6c14.3,0,25.9-8.8,25.9-19.6C53.2,24.7,41.5,15.9,27.2,15.9z
			 M27.2,16.9c2.8,0,5.6,0.4,8.1,1H19.1C21.7,17.2,24.4,16.9,27.2,16.9z M17,18.5h20.4c1.2,0.4,2.4,0.9,3.5,1.4H13.6
			C14.7,19.4,15.8,18.9,17,18.5z M12.4,20.5h29.7c0.8,0.4,1.5,0.9,2.3,1.4H10.1C10.8,21.4,11.6,21,12.4,20.5z M9.3,22.5h35.9
			c0.6,0.4,1.1,0.9,1.7,1.4H7.6C8.2,23.5,8.7,23,9.3,22.5z M27.2,54.2c-3.1,0-6.1-0.4-8.9-1.2h17.8C33.3,53.7,30.3,54.2,27.2,54.2z
			 M38,52.3H16.4c-1.1-0.4-2.2-0.9-3.3-1.4h28.1C40.3,51.5,39.2,51.9,38,52.3z M42.4,50.3H12c-0.8-0.4-1.5-0.9-2.2-1.4h34.8
			C43.9,49.4,43.2,49.9,42.4,50.3z M45.4,48.3H9c-0.6-0.5-1.1-0.9-1.6-1.4H47C46.5,47.4,46,47.8,45.4,48.3z M46.2,36.7h5.9
			c0,0.5-0.1,0.9-0.2,1.4h-5.5c0,0.2,0,0.4,0,0.6h5.3c-0.1,0.5-0.2,1-0.4,1.4h-5c0,0.2-0.1,0.4-0.1,0.6h4.9c-0.2,0.5-0.4,1-0.6,1.4
			h-4.6c-0.1,0.2-0.2,0.4-0.3,0.6h4.6c-0.3,0.5-0.6,1-0.9,1.4h-4.7c-0.2,0.2-0.4,0.4-0.7,0.6h4.9c-0.4,0.5-0.8,1-1.2,1.4H6.8
			c-0.4-0.5-0.8-0.9-1.2-1.4h6.1v-0.6H5.1c-0.3-0.5-0.6-0.9-0.9-1.4h7.4v-0.6H3.9c-0.2-0.5-0.5-0.9-0.6-1.4h8.4v-0.6H3
			c-0.2-0.5-0.3-0.9-0.4-1.4h9.1v-0.6H2.5c-0.1-0.5-0.2-0.9-0.2-1.4h9.4v-0.6H2.3c0-0.2,0-0.4,0-0.6c0-0.3,0-0.5,0-0.8h9.4v-0.6H2.3
			c0-0.5,0.1-0.9,0.2-1.4h9.2v-0.6h-9c0.1-0.5,0.3-1,0.4-1.4h8.6V30H3.3c0.2-0.5,0.4-0.9,0.7-1.4h7.7V28H4.4c0.3-0.5,0.6-1,0.9-1.4
			h6.4V26H5.8c0.4-0.5,0.8-1,1.3-1.4h40.4c0.4,0.5,0.9,0.9,1.3,1.4h-3.5v0.6h4c0.3,0.5,0.6,0.9,0.9,1.4h-4.9v0.6h5.3
			c0.2,0.5,0.5,0.9,0.7,1.4h-6v0.6h6.2c0.2,0.5,0.3,0.9,0.4,1.4H37.4c0.7,0.2,1.6,0.4,2.4,0.6h12.1c0.1,0.5,0.2,0.9,0.2,1.4h-8.1
			c0.3,0.2,0.6,0.4,0.8,0.6h7.3c0,0.3,0,0.5,0,0.8c0,0.2,0,0.4,0,0.6H46C46,36.3,46.1,36.5,46.2,36.7z M35,36.1h-5.6
			c0,0.2,0,0.4,0,0.6h7.1C35.9,36.6,35.4,36.4,35,36.1z M33.8,40.8h9.9c0-0.2-0.1-0.4-0.2-0.6h-10C33.6,40.4,33.7,40.6,33.8,40.8z
			 M41.3,38.2h-8.4c0,0.2,0.1,0.4,0.2,0.6h9.4C42.1,38.5,41.7,38.3,41.3,38.2z M33.2,44.9h2c-0.5-0.2-0.9-0.3-1.2-0.3
			C33.6,44.6,33.3,44.7,33.2,44.9z M24.5,32.1h-8.3v0.6h8.4C24.5,32.5,24.5,32.3,24.5,32.1z M24.2,30h-8v0.6h8.2
			C24.3,30.4,24.2,30.2,24.2,30z M23.4,28h-7.2v0.6h7.6C23.6,28.4,23.5,28.2,23.4,28z M16.2,44.9h4.3c0.5-0.1,1-0.4,1.4-0.6h-5.8
			V44.9z M19.6,26h-3.5v0.6h5.7C21.3,26.3,20.5,26.1,19.6,26z M24.5,38.2h-8.4v0.6h8.3C24.5,38.6,24.5,38.4,24.5,38.2z M24.6,36.1
			h-8.4v0.6h8.4C24.6,36.5,24.6,36.3,24.6,36.1z M24.6,34.1h-8.4v0.6h8.4C24.6,34.5,24.6,34.3,24.6,34.1z"/>
	</g>
</g>
</svg>
