<?xml version="1.0" encoding="UTF-8"?>
<svg xmlns="http://www.w3.org/2000/svg" width="583.6" height="295.33" viewBox="0 0 583.6 295.33">
  <title>vikingskipet-logo-white-text</title>
  <g id="a05323b7-3fcb-4b88-b774-158241afac39" data-name="Layer 2">
    <g id="bf1bb30c-ce40-4533-ae7e-36672cc465c8" data-name="Layer 1">
      <g>
        <g>
          <path d="M548.3,129l19.2-5.8c11.8-4.8,2.1-10.4,2.1-10.4l-47.4-27.6c1.1-8.4-7.5-10.6-7.5-10.6l-53.8-17.4c-.6-8.3-7.8-9.2-7.8-9.2l-68-15.4C358,7.23,330.9,2.53,330.9,2.53c-55.8-11.7-89.1,20.9-89.1,20.9-78.6,8.5-98.6,26.2-98.6,26.2-15,2.4-23.6,4.1-38.9,9.1-30.6,11.1-43.5,26.4-43.5,26.4-13,5.2-22.6,10.7-33.5,17.4s-13.4,13.2-12.4,17.2c1.9,9.7,18.2,11.2,18.2,11.2L3.8,162.33H579.5Z" style="fill: #181716"></path>
          <path d="M454.7,128.63c38.2-10.4,57.8-39.3,57.8-39.3,6.5-8.7-1.2-11.6-1.2-11.6s-15.3-5.2-27.2-9.1-24.3-7.3-24.3-7.3c-2.2,18.5-16.4,46.4-17.9,49.5C446.6,117.13,450.8,123.13,454.7,128.63Zm-225.4,33.8h10.1l25.6-28.1v28.1h4.5v-36.2l-5.6-.7Zm-23.9-89.7c34.7,5.9,154.1,35.7,154.1,35.7l90.4,19.9c-3.5-4.9-7.4-10.2-11.7-15.7-3.7-1.1-44.2-12.7-108.1-34.8-70.5-24.3-115.5-27.2-115.5-27.2-106.8-6.9-139.7,28-139.7,28C123.4,60.33,170.8,66.83,205.4,72.73Zm99-8.7c30.9,10.5,124.3,43.3,131.3,45.8-20.6-25.7-49.8-55.6-86.9-76.7-48.7-27.8-99.9-6.3-99.9-6.3,37-25.7,73.3-23.1,95.9-12,33.3,16.4,69.4,58.7,95.5,93.8a200.27,200.27,0,0,0,14.3-47.2c1.5-9.7-5.6-9.8-5.6-9.8L383,36c-23.3-18.8-39.9-32.4-74.4-32.7-41.4-.3-64.3,23.6-64.3,23.6-61.9,5.3-87.7,20.4-87.7,20.4C180.7,42.83,231.4,39.33,304.4,64Zm-135.2,97.1v-45.9l-4.7-.6-35.3,37.2v-40.4l-3.8-.3-19.2,20.7v-22.1l-2.7-.2-13.3,13.9v-14.6l-2.8-.1-10.1,10.9v-11.4l-2.8-.1-11.1,12v-12.3H61.6l-50.7,54.6h7.4l42.5-46.8V123l-36.9,39.4h8.3l28.4-31.6v7l-22.7,24.6h7.9l14.8-15.9V156l-6,6.4h7.8l11.4-12.7v12.7h3.5v-16.3l9.5-10.3v16.9l-9,9.7H85l1.7-2.1v2.1h3.4v-5.8l12.6-12.9v18.6h3.4V140l19.1-20.5v36.4l-6.1,6.4h10.1l35.9-38.9v38.9h13.7l31.9-33.8v33.8h4.9V120l-6.2-.7Zm-95.4-19.3L63.4,153v-10.1l10.4-11.2Zm0-17.9-10.5,10.9V128l10.5-11.6Zm13,3.8L77.3,138v-10.8l9.5-10.7Zm15.9,7.9-12.6,12.9v-16.7l12.6-13.4Zm385.8,26.8H501v-16.7l-12.5.5Zm-8.5-15.3-8.4.3-5-8.2c21.4-2.5,44.3-6.1,62.1-10.2,19.1-4.4,32.8-8.6,32.8-8.6,7.4-2,.5-6.2.5-6.2s-14.7-9.4-24.8-15.5-17.3-9.6-17.3-9.6C497.8,120,459,130.33,456.4,131c2,2.9,6.2,9.1,6.2,9.1,9,13.4,14.5,22.4,14.5,22.4h-5.8s-3.1-5.8-8.7-14.8h-4.5v14.8h25.1l-3.2-6.7Zm-113.8-32.7c-38.7-8.8-188.1-46.5-240.2-41.3C84.7,77.33,68.5,85,47.1,95.33c-51.3,24.7-17.2,34.4-11.3,33.8l1.6-1.2c-24.8-9.1-5.7-24,18.4-25.1,75.3-3.5,261.5,24.7,261.5,24.7,93.3,11.5,128.6,12.3,140,12-1.7-2.6-3.6-5.3-5.6-8.2C447,130.43,402.8,122.73,366.2,114.43Zm202.1,48h5.4l-28.9-30.7-4.2.8v3.6l-2.7-3.1-3.6.6v17.2l-14-15.2-3.7.7v26.1h4v-17l13.7,14.7v2.3H545l-1.3-1.4v-12.3l12.9,13.7h6.9l-19.8-22.7v-3.5Zm-27.7-4.8-2.9-3.1v-12.1l2.9,3Zm-172.3,4.8h17.5v-16.8l-17.5-.4Zm56.5,0H445V147l-20.2-.5Zm-125.1,0H309l20.4-22.7v22.7h4.9v-28.8l-6.9-.8Zm95.6,0h17.5v-16.1l-17.5-.5Z" style="fill: #fff"></path>
        </g>
        <path d="M0,222.43H15.6l11.1,52.1h.2l12.5-52.1H54.2l-19,71.7H17.7Zm61,71.7v-71.7H76v71.7Zm59.4-71.7h16.5l-20,32.2,20,39.5H120l-17.2-36.7h-.2v36.7h-15v-71.7h15v30.7h.2Zm23.3,71.7v-71.7h15v71.7Zm27.7,0v-71.7h20.2L210.7,272h.2v-49.6h14v71.7H205.1l-19.6-52.4h-.2v52.4Zm98.9-49.6c.1-6.6-1-12.5-8.9-12.5-9.3,0-9.3,12.6-9.3,26.5,0,22.4,2.2,26.4,10.7,26.4a22.61,22.61,0,0,0,7.4-1.4v-15.9h-8.1v-11h23.1v36.3c-4.1.8-14.3,2.4-20.2,2.4-25.2,0-28.1-10.4-28.1-37.6,0-18.1.9-36.4,25.4-36.4,14.7,0,23.8,8.2,22.9,23.2Zm47.3,50.8c-18.6,0-22-10.9-21.2-23.3h15c0,6.8.3,12.6,8.5,12.6,5.1,0,7.5-3.3,7.5-8.1,0-12.9-30.2-13.7-30.2-35,0-11.2,5.4-20.1,23.6-20.1,14.6,0,21.8,6.6,20.8,21.5H327c0-5.4-.9-10.8-6.9-10.8-4.9,0-7.7,2.7-7.7,7.6,0,13.6,30.2,12.4,30.2,34.9C342.6,293.13,329,295.33,317.6,295.33Zm67.6-72.9h16.5l-20,32.2,20,39.5H384.8l-17.2-36.7h-.2v36.7h-15v-71.7h15v30.7h.2Zm23.3,71.7v-71.7h15v71.7Zm27.7-71.7h27c13.7,0,19.1,8.3,19.1,21.4,0,8.1-2.4,21-20,21H451.2V294h-15Zm15,31.5h8.3c4.5,0,7.5-4.9,7.5-9.6,0-5.9-1.6-10.8-8.3-10.8h-7.5Zm40.1,40.2v-71.7h39.1v11H506.3v17.7h22.2v11H506.3V283h24.9v11H491.3Zm92.3-71.7v11.9H566.9v59.8h-15v-59.8H535.2v-11.9Z" style="fill: #fff"></path>
      </g>
    </g>
  </g>
</svg>
